  0
SECTION
  2
HEADER
  9
$ACADVER
  1
AC1009
  9
$INSBASE
 10
0.0
 20
0.0
 30
0.0
  9
$EXTMIN
 10
-70.0
 20
-110.0
 30
0.0
  9
$EXTMAX
 10
0.0
 20
0.0000000000002558
 30
0.0
  9
$LIMMIN
 10
0.0
 20
0.0
  9
$LIMMAX
 10
12.0
 20
9.0
  9
$ORTHOMODE
 70
     0
  9
$REGENMODE
 70
     1
  9
$FILLMODE
 70
     1
  9
$QTEXTMODE
 70
     0
  9
$MIRRTEXT
 70
     0
  9
$DRAGMODE
 70
     2
  9
$LTSCALE
 40
1.0
  9
$OSMODE
 70
    37
  9
$ATTMODE
 70
     1
  9
$TEXTSIZE
 40
0.2
  9
$TRACEWID
 40
0.05
  9
$TEXTSTYLE
  7
STANDARD
  9
$CLAYER
  8
0
  9
$CELTYPE
  6
CONTINUOUS
  9
$CECOLOR
 62
   256
  9
$DIMSCALE
 40
1.0
  9
$DIMASZ
 40
0.18
  9
$DIMEXO
 40
0.0625
  9
$DIMDLI
 40
0.38
  9
$DIMRND
 40
0.0
  9
$DIMDLE
 40
0.0
  9
$DIMEXE
 40
0.18
  9
$DIMTP
 40
0.0
  9
$DIMTM
 40
0.0
  9
$DIMTXT
 40
0.18
  9
$DIMCEN
 40
0.09
  9
$DIMTSZ
 40
0.0
  9
$DIMTOL
 70
     0
  9
$DIMLIM
 70
     0
  9
$DIMTIH
 70
     1
  9
$DIMTOH
 70
     1
  9
$DIMSE1
 70
     0
  9
$DIMSE2
 70
     0
  9
$DIMTAD
 70
     0
  9
$DIMZIN
 70
     0
  9
$DIMBLK
  1

  9
$DIMASO
 70
     1
  9
$DIMSHO
 70
     1
  9
$DIMPOST
  1

  9
$DIMAPOST
  1

  9
$DIMALT
 70
     0
  9
$DIMALTD
 70
     2
  9
$DIMALTF
 40
25.3999999999999986
  9
$DIMLFAC
 40
1.0
  9
$DIMTOFL
 70
     0
  9
$DIMTVP
 40
0.0
  9
$DIMTIX
 70
     0
  9
$DIMSOXD
 70
     0
  9
$DIMSAH
 70
     0
  9
$DIMBLK1
  1

  9
$DIMBLK2
  1

  9
$DIMSTYLE
  2
STANDARD
  9
$DIMCLRD
 70
     0
  9
$DIMCLRE
 70
     0
  9
$DIMCLRT
 70
     0
  9
$DIMTFAC
 40
1.0
  9
$DIMGAP
 40
0.09
  9
$LUNITS
 70
     2
  9
$LUPREC
 70
     4
  9
$SKETCHINC
 40
0.1
  9
$FILLETRAD
 40
0.0
  9
$AUNITS
 70
     0
  9
$AUPREC
 70
     0
  9
$MENU
  1
.
  9
$ELEVATION
 40
0.0
  9
$PELEVATION
 40
0.0
  9
$THICKNESS
 40
0.0
  9
$LIMCHECK
 70
     0
  9
$BLIPMODE
 70
     0
  9
$CHAMFERA
 40
0.0
  9
$CHAMFERB
 40
0.0
  9
$SKPOLY
 70
     0
  9
$TDCREATE
 40
2460272.7880208338610828
  9
$TDUPDATE
 40
2460272.7890162039548159
  9
$TDINDWG
 40
0.0009953704
  9
$TDUSRTIMER
 40
0.0009953704
  9
$USRTIMER
 70
     1
  9
$ANGBASE
 50
0.0
  9
$ANGDIR
 70
     0
  9
$PDMODE
 70
     0
  9
$PDSIZE
 40
0.0
  9
$PLINEWID
 40
0.0
  9
$COORDS
 70
     1
  9
$SPLFRAME
 70
     0
  9
$SPLINETYPE
 70
     6
  9
$SPLINESEGS
 70
     8
  9
$ATTDIA
 70
     1
  9
$ATTREQ
 70
     1
  9
$HANDLING
 70
     1
  9
$HANDSEED
  5
101F8
  9
$SURFTAB1
 70
     6
  9
$SURFTAB2
 70
     6
  9
$SURFTYPE
 70
     6
  9
$SURFU
 70
     6
  9
$SURFV
 70
     6
  9
$UCSNAME
  2

  9
$UCSORG
 10
0.0
 20
0.0
 30
0.0
  9
$UCSXDIR
 10
1.0
 20
0.0
 30
0.0
  9
$UCSYDIR
 10
0.0
 20
1.0
 30
0.0
  9
$PUCSNAME
  2

  9
$PUCSORG
 10
0.0
 20
0.0
 30
0.0
  9
$PUCSXDIR
 10
1.0
 20
0.0
 30
0.0
  9
$PUCSYDIR
 10
0.0
 20
1.0
 30
0.0
  9
$USERI1
 70
     0
  9
$USERI2
 70
     0
  9
$USERI3
 70
     0
  9
$USERI4
 70
     0
  9
$USERI5
 70
     0
  9
$USERR1
 40
0.0
  9
$USERR2
 40
0.0
  9
$USERR3
 40
0.0
  9
$USERR4
 40
0.0
  9
$USERR5
 40
0.0
  9
$WORLDVIEW
 70
     1
  9
$SHADEDGE
 70
     3
  9
$SHADEDIF
 70
    70
  9
$TILEMODE
 70
     1
  9
$MAXACTVP
 70
    64
  9
$PLIMCHECK
 70
     0
  9
$PEXTMIN
 10
1.0000000000000000E+20
 20
1.0000000000000000E+20
 30
1.0000000000000000E+20
  9
$PEXTMAX
 10
-1.0000000000000000E+20
 20
-1.0000000000000000E+20
 30
-1.0000000000000000E+20
  9
$PLIMMIN
 10
0.0
 20
0.0
  9
$PLIMMAX
 10
12.0
 20
9.0
  9
$UNITMODE
 70
     0
  9
$VISRETAIN
 70
     1
  9
$PLINEGEN
 70
     0
  9
$PSLTSCALE
 70
     1
  0
ENDSEC
  0
SECTION
  2
TABLES
  0
TABLE
  2
VPORT
 70
     1
  0
VPORT
  2
*ACTIVE
 70
     0
 10
0.0
 20
0.0
 11
1.0
 21
1.0
 12
60.1600334816259803
 22
54.0679648288635804
 13
0.0
 23
0.0
 14
1.0
 24
1.0
 15
0.0
 25
0.0
 16
0.0
 26
0.0
 36
1.0
 17
0.0
 27
0.0
 37
0.0
 40
610.3352677415335847
 41
2.3370098039215681
 42
50.0
 43
0.0
 44
0.0
 50
0.0
 51
0.0
 71
     0
 72
  1000
 73
     1
 74
     3
 75
     0
 76
     0
 77
     0
 78
     0
  0
ENDTAB
  0
TABLE
  2
LTYPE
 70
     1
  0
LTYPE
  2
CONTINUOUS
 70
     0
  3
Solid line
 72
    65
 73
     0
 40
0.0
  0
ENDTAB
  0
TABLE
  2
LAYER
 70
     1
  0
LAYER
  2
0
 70
     0
 62
     7
  6
CONTINUOUS
  0
ENDTAB
  0
TABLE
  2
STYLE
 70
     1
  0
STYLE
  2
STANDARD
 70
     0
 40
0.0
 41
1.0
 50
0.0
 71
     0
 42
0.2
  3
txt
  4

  0
ENDTAB
  0
TABLE
  2
VIEW
 70
     0
  0
ENDTAB
  0
TABLE
  2
UCS
 70
     0
  0
ENDTAB
  0
TABLE
  2
APPID
 70
     3
  0
APPID
  2
ACAD
 70
     0
  0
APPID
  2
ACAD_NAV_VCDISPLAY
 70
     0
  0
APPID
  2
ACAD_MLEADERVER
 70
     0
  0
ENDTAB
  0
TABLE
  2
DIMSTYLE
 70
     1
  0
DIMSTYLE
  2
STANDARD
 70
     0
  3

  4

  5

  6

  7

 40
1.0
 41
0.18
 42
0.0625
 43
0.38
 44
0.18
 45
0.0
 46
0.0
 47
0.0
 48
0.0
140
0.18
141
0.09
142
0.0
143
25.3999999999999986
144
1.0
145
0.0
146
1.0
147
0.09
 71
     0
 72
     0
 73
     1
 74
     1
 75
     0
 76
     0
 77
     0
 78
     0
170
     0
171
     2
172
     0
173
     0
174
     0
175
     0
176
     0
177
     0
178
     0
  0
ENDTAB
  0
ENDSEC
  0
SECTION
  2
BLOCKS
  0
BLOCK
  8
0
  2
$MODEL_SPACE
 70
     0
 10
0.0
 20
0.0
 30
0.0
  3
$MODEL_SPACE
  1

  0
ENDBLK
  5
21
  8
0
  0
BLOCK
 67
     1
  8
0
  2
$PAPER_SPACE
 70
     0
 10
0.0
 20
0.0
 30
0.0
  3
$PAPER_SPACE
  1

  0
ENDBLK
  5
1D
 67
     1
  8
0
  0
ENDSEC
  0
SECTION
  2
ENTITIES
  0
CIRCLE
  5
100
  8
0
 10
-35.0
 20
-5.0
 30
0.0
 40
1.600000000000001
  0
POLYLINE
  5
101
  8
0
 66
     1
 10
0.0
 20
0.0
 30
0.0
 70
     1
  0
VERTEX
  5
10071
  8
0
 10
-22.9982304848782313
 20
-4.8955285706096197
 30
0.0
  0
VERTEX
  5
10072
  8
0
 10
-21.8744105016235295
 20
-7.6770800522898499
 30
0.0
 42
-1.0
  0
VERTEX
  5
10073
  8
0
 10
-24.6559620653238909
 20
-8.8008998325375796
 30
0.0
  0
VERTEX
  5
10074
  8
0
 10
-25.7797820485785998
 20
-6.0193483508573644
 30
0.0
 42
-1.0
  0
SEQEND
  5
10075
  8
0
  0
POLYLINE
  5
102
  8
0
 66
     1
 10
0.0
 20
0.0
 30
0.0
 70
     1
  0
VERTEX
  5
10076
  8
0
 10
-44.2202179514213896
 20
-6.0193483508573724
 30
0.0
  0
VERTEX
  5
10077
  8
0
 10
-45.3440379346761091
 20
-8.8008998325375831
 30
0.0
 42
-1.0
  0
VERTEX
  5
10078
  8
0
 10
-48.1255894983764705
 20
-7.6770800522898499
 30
0.0
  0
VERTEX
  5
10079
  8
0
 10
-47.0017695151217723
 20
-4.8955285706096223
 30
0.0
 42
-1.0
  0
SEQEND
  5
1007A
  8
0
  0
CIRCLE
  5
103
  8
0
 10
-17.5500000000000007
 20
-44.75
 30
0.0
 40
1.600000000000003
  0
CIRCLE
  5
104
  8
0
 10
-52.4500000000000028
 20
-85.25
 30
0.0
 40
1.600000000000001
  0
CIRCLE
  5
105
  8
0
 10
-17.5500000000000007
 20
-85.25
 30
0.0
 40
1.599999999999999
  0
CIRCLE
  5
106
  8
0
 10
-16.6499999999999915
 20
-107.9000000000000057
 30
0.0
 40
1.0499999999999949
  0
CIRCLE
  5
107
  8
0
 10
-53.3500000000000014
 20
-107.9000000000000057
 30
0.0
 40
1.0499999999999949
  0
CIRCLE
  5
108
  8
0
 10
-52.4500000000000028
 20
-44.75
 30
0.0
 40
1.600000000000001
  0
LINE
  5
109
  8
0
 10
-13.3499999999999908
 20
-40.0
 30
0.0
 11
-1.0
 21
-40.0
 31
0.0
  0
ARC
  5
110
  8
0
 10
-1.0000000000000051
 20
-39.0
 30
0.0
 40
1.0000000000000051
 50
270.0000000000002842
 51
353.6290779502688792
  0
POLYLINE
  5
111
  8
0
 10
-0.0061756376716069
 20
-39.1109645747192332
 30
0.0
 66
     1
 70
     8
  0
VERTEX
  8
0
  5
100F4
 10
-0.00617564
 20
-39.1110
 30
0.00000
  70
    32
  0
VERTEX
  8
0
  5
100F5
 10
-0.0147269
 20
-38.6272
 30
0.00000
  70
    32
  0
VERTEX
  8
0
  5
100F6
 10
-0.0269351
 20
-38.1437
 30
0.00000
  70
    32
  0
VERTEX
  8
0
  5
100F7
 10
-0.0427985
 20
-37.6604
 30
0.00000
  70
    32
  0
VERTEX
  8
0
  5
100F8
 10
-0.0623148
 20
-37.1775
 30
0.00000
  70
    32
  0
VERTEX
  8
0
  5
100F9
 10
-0.0854810
 20
-36.6950
 30
0.00000
  70
    32
  0
VERTEX
  8
0
  5
100FA
 10
-0.112294
 20
-36.2130
 30
0.00000
  70
    32
  0
VERTEX
  8
0
  5
100FB
 10
-0.142749
 20
-35.7315
 30
0.00000
  70
    32
  0
VERTEX
  8
0
  5
100FC
 10
-0.176843
 20
-35.2507
 30
0.00000
  70
    32
  0
VERTEX
  8
0
  5
100FD
 10
-0.214570
 20
-34.7706
 30
0.00000
  70
    32
  0
VERTEX
  8
0
  5
100FE
 10
-0.255925
 20
-34.2912
 30
0.00000
  70
    32
  0
VERTEX
  8
0
  5
100FF
 10
-0.300901
 20
-33.8126
 30
0.00000
  70
    32
  0
VERTEX
  8
0
  5
10100
 10
-0.349492
 20
-33.3350
 30
0.00000
  70
    32
  0
VERTEX
  8
0
  5
10101
 10
-0.401692
 20
-32.8583
 30
0.00000
  70
    32
  0
VERTEX
  8
0
  5
10102
 10
-0.457491
 20
-32.3827
 30
0.00000
  70
    32
  0
VERTEX
  8
0
  5
10103
 10
-0.516883
 20
-31.9082
 30
0.00000
  70
    32
  0
VERTEX
  8
0
  5
10104
 10
-0.579858
 20
-31.4349
 30
0.00000
  70
    32
  0
VERTEX
  8
0
  5
10105
 10
-0.646408
 20
-30.9628
 30
0.00000
  70
    32
  0
VERTEX
  8
0
  5
10106
 10
-0.716522
 20
-30.4921
 30
0.00000
  70
    32
  0
VERTEX
  8
0
  5
10107
 10
-0.790190
 20
-30.0227
 30
0.00000
  70
    32
  0
VERTEX
  8
0
  5
10108
 10
-0.867402
 20
-29.5548
 30
0.00000
  70
    32
  0
VERTEX
  8
0
  5
10109
 10
-0.948146
 20
-29.0885
 30
0.00000
  70
    32
  0
VERTEX
  8
0
  5
1010A
 10
-1.03241
 20
-28.6237
 30
0.00000
  70
    32
  0
VERTEX
  8
0
  5
1010B
 10
-1.12018
 20
-28.1606
 30
0.00000
  70
    32
  0
VERTEX
  8
0
  5
1010C
 10
-1.21145
 20
-27.6992
 30
0.00000
  70
    32
  0
VERTEX
  8
0
  5
1010D
 10
-1.30620
 20
-27.2397
 30
0.00000
  70
    32
  0
VERTEX
  8
0
  5
1010E
 10
-1.40442
 20
-26.7820
 30
0.00000
  70
    32
  0
VERTEX
  8
0
  5
1010F
 10
-1.50609
 20
-26.3262
 30
0.00000
  70
    32
  0
VERTEX
  8
0
  5
10110
 10
-1.61120
 20
-25.8725
 30
0.00000
  70
    32
  0
VERTEX
  8
0
  5
10111
 10
-1.71973
 20
-25.4208
 30
0.00000
  70
    32
  0
VERTEX
  8
0
  5
10112
 10
-1.83167
 20
-24.9712
 30
0.00000
  70
    32
  0
VERTEX
  8
0
  5
10113
 10
-1.94700
 20
-24.5238
 30
0.00000
  70
    32
  0
VERTEX
  8
0
  5
10114
 10
-2.06570
 20
-24.0787
 30
0.00000
  70
    32
  0
VERTEX
  8
0
  5
10115
 10
-2.18777
 20
-23.6360
 30
0.00000
  70
    32
  0
VERTEX
  8
0
  5
10116
 10
-2.31317
 20
-23.1956
 30
0.00000
  70
    32
  0
VERTEX
  8
0
  5
10117
 10
-2.44189
 20
-22.7577
 30
0.00000
  70
    32
  0
VERTEX
  8
0
  5
10118
 10
-2.57391
 20
-22.3223
 30
0.00000
  70
    32
  0
VERTEX
  8
0
  5
10119
 10
-2.70922
 20
-21.8895
 30
0.00000
  70
    32
  0
VERTEX
  8
0
  5
1011A
 10
-2.84779
 20
-21.4594
 30
0.00000
  70
    32
  0
VERTEX
  8
0
  5
1011B
 10
-2.98960
 20
-21.0319
 30
0.00000
  70
    32
  0
VERTEX
  8
0
  5
1011C
 10
-3.13463
 20
-20.6073
 30
0.00000
  70
    32
  0
VERTEX
  8
0
  5
1011D
 10
-3.28286
 20
-20.1854
 30
0.00000
  70
    32
  0
VERTEX
  8
0
  5
1011E
 10
-3.43427
 20
-19.7665
 30
0.00000
  70
    32
  0
VERTEX
  8
0
  5
1011F
 10
-3.58884
 20
-19.3506
 30
0.00000
  70
    32
  0
VERTEX
  8
0
  5
10120
 10
-3.74654
 20
-18.9376
 30
0.00000
  70
    32
  0
VERTEX
  8
0
  5
10121
 10
-3.90735
 20
-18.5278
 30
0.00000
  70
    32
  0
VERTEX
  8
0
  5
10122
 10
-4.07125
 20
-18.1211
 30
0.00000
  70
    32
  0
VERTEX
  8
0
  5
10123
 10
-4.23821
 20
-17.7176
 30
0.00000
  70
    32
  0
VERTEX
  8
0
  5
10124
 10
-4.40821
 20
-17.3173
 30
0.00000
  70
    32
  0
VERTEX
  8
0
  5
10125
 10
-4.58123
 20
-16.9204
 30
0.00000
  70
    32
  0
VERTEX
  8
0
  5
10126
 10
-4.75723
 20
-16.5268
 30
0.00000
  70
    32
  0
VERTEX
  8
0
  5
10127
 10
-4.93620
 20
-16.1367
 30
0.00000
  70
    32
  0
VERTEX
  8
0
  5
10128
 10
-5.11810
 20
-15.7501
 30
0.00000
  70
    32
  0
VERTEX
  8
0
  5
10129
 10
-5.30291
 20
-15.3670
 30
0.00000
  70
    32
  0
VERTEX
  8
0
  5
1012A
 10
-5.49061
 20
-14.9876
 30
0.00000
  70
    32
  0
VERTEX
  8
0
  5
1012B
 10
-5.68116
 20
-14.6118
 30
0.00000
  70
    32
  0
VERTEX
  8
0
  5
1012C
 10
-5.87454
 20
-14.2397
 30
0.00000
  70
    32
  0
VERTEX
  8
0
  5
1012D
 10
-6.07072
 20
-13.8713
 30
0.00000
  70
    32
  0
VERTEX
  8
0
  5
1012E
 10
-6.26967
 20
-13.5068
 30
0.00000
  70
    32
  0
VERTEX
  8
0
  5
1012F
 10
-6.47136
 20
-13.1462
 30
0.00000
  70
    32
  0
VERTEX
  8
0
  5
10130
 10
-6.67576
 20
-12.7895
 30
0.00000
  70
    32
  0
VERTEX
  8
0
  5
10131
 10
-6.88285
 20
-12.4368
 30
0.00000
  70
    32
  0
VERTEX
  8
0
  5
10132
 10
-7.09258
 20
-12.0882
 30
0.00000
  70
    32
  0
VERTEX
  8
0
  5
10133
 10
-7.30494
 20
-11.7436
 30
0.00000
  70
    32
  0
VERTEX
  8
0
  5
10134
 10
-7.51989
 20
-11.4031
 30
0.00000
  70
    32
  0
VERTEX
  8
0
  5
10135
 10
-7.73739
 20
-11.0669
 30
0.00000
  70
    32
  0
VERTEX
  8
0
  5
10136
 10
-7.95742
 20
-10.7348
 30
0.00000
  70
    32
  0
VERTEX
  8
0
  5
10137
 10
-8.17995
 20
-10.4071
 30
0.00000
  70
    32
  0
VERTEX
  8
0
  5
10138
 10
-8.40494
 20
-10.0837
 30
0.00000
  70
    32
  0
VERTEX
  8
0
  5
10139
 10
-8.63235
 20
-9.76465
 30
0.00000
  70
    32
  0
VERTEX
  8
0
  5
1013A
 10
-8.86217
 20
-9.45004
 30
0.00000
  70
    32
  0
VERTEX
  8
0
  5
1013B
 10
-9.09434
 20
-9.13990
 30
0.00000
  70
    32
  0
VERTEX
  8
0
  5
1013C
 10
-9.32885
 20
-8.83428
 30
0.00000
  70
    32
  0
VERTEX
  8
0
  5
1013D
 10
-9.56564
 20
-8.53322
 30
0.00000
  70
    32
  0
VERTEX
  8
0
  5
1013E
 10
-9.80470
 20
-8.23676
 30
0.00000
  70
    32
  0
VERTEX
  8
0
  5
1013F
 10
-10.0460
 20
-7.94496
 30
0.00000
  70
    32
  0
VERTEX
  8
0
  5
10140
 10
-10.2894
 20
-7.65784
 30
0.00000
  70
    32
  0
VERTEX
  8
0
  5
10141
 10
-10.5351
 20
-7.37546
 30
0.00000
  70
    32
  0
VERTEX
  8
0
  5
10142
 10
-10.7828
 20
-7.09786
 30
0.00000
  70
    32
  0
VERTEX
  8
0
  5
10143
 10
-11.0326
 20
-6.82507
 30
0.00000
  70
    32
  0
VERTEX
  8
0
  5
10144
 10
-11.2845
 20
-6.55714
 30
0.00000
  70
    32
  0
VERTEX
  8
0
  5
10145
 10
-11.5384
 20
-6.29410
 30
0.00000
  70
    32
  0
VERTEX
  8
0
  5
10146
 10
-11.7942
 20
-6.03599
 30
0.00000
  70
    32
  0
VERTEX
  8
0
  5
10147
 10
-12.0520
 20
-5.78286
 30
0.00000
  70
    32
  0
VERTEX
  8
0
  5
10148
 10
-12.3116
 20
-5.53473
 30
0.00000
  70
    32
  0
VERTEX
  8
0
  5
10149
 10
-12.5732
 20
-5.29165
 30
0.00000
  70
    32
  0
VERTEX
  8
0
  5
1014A
 10
-12.8365
 20
-5.05365
 30
0.00000
  70
    32
  0
VERTEX
  8
0
  5
1014B
 10
-13.1016
 20
-4.82076
 30
0.00000
  70
    32
  0
VERTEX
  8
0
  5
1014C
 10
-13.3685
 20
-4.59303
 30
0.00000
  70
    32
  0
VERTEX
  8
0
  5
1014D
 10
-13.6371
 20
-4.37047
 30
0.00000
  70
    32
  0
VERTEX
  8
0
  5
1014E
 10
-13.9073
 20
-4.15313
 30
0.00000
  70
    32
  0
VERTEX
  8
0
  5
1014F
 10
-14.1792
 20
-3.94104
 30
0.00000
  70
    32
  0
VERTEX
  8
0
  5
10150
 10
-14.4526
 20
-3.73422
 30
0.00000
  70
    32
  0
VERTEX
  8
0
  5
10151
 10
-14.7276
 20
-3.53271
 30
0.00000
  70
    32
  0
VERTEX
  8
0
  5
10152
 10
-15.0041
 20
-3.33654
 30
0.00000
  70
    32
  0
VERTEX
  8
0
  5
10153
 10
-15.2820
 20
-3.14574
 30
0.00000
  70
    32
  0
VERTEX
  8
0
  5
10154
 10
-15.5614
 20
-2.96033
 30
0.00000
  70
    32
  0
VERTEX
  8
0
  5
10155
 10
-15.8422
 20
-2.78034
 30
0.00000
  70
    32
  0
VERTEX
  8
0
  5
10156
 10
-16.1243
 20
-2.60580
 30
0.00000
  70
    32
  0
VERTEX
  8
0
  5
10157
 10
-16.4077
 20
-2.43673
 30
0.00000
  70
    32
  0
VERTEX
  8
0
  5
10158
 10
-16.6923
 20
-2.27316
 30
0.00000
  70
    32
  0
VERTEX
  8
0
  5
10159
 10
-16.9782
 20
-2.11511
 30
0.00000
  70
    32
  0
VERTEX
  8
0
  5
1015A
 10
-17.2652
 20
-1.96261
 30
0.00000
  70
    32
  0
VERTEX
  8
0
  5
1015B
 10
-17.5534
 20
-1.81567
 30
0.00000
  70
    32
  0
VERTEX
  8
0
  5
1015C
 10
-17.8427
 20
-1.67433
 30
0.00000
  70
    32
  0
VERTEX
  8
0
  5
1015D
 10
-18.1330
 20
-1.53859
 30
0.00000
  70
    32
  0
VERTEX
  8
0
  5
1015E
 10
-18.4243
 20
-1.40848
 30
0.00000
  70
    32
  0
VERTEX
  8
0
  5
1015F
 10
-18.7166
 20
-1.28402
 30
0.00000
  70
    32
  0
VERTEX
  8
0
  5
10160
 10
-19.0098
 20
-1.16523
 30
0.00000
  70
    32
  0
VERTEX
  8
0
  5
10161
 10
-19.3038
 20
-1.05212
 30
0.00000
  70
    32
  0
VERTEX
  8
0
  5
10162
 10
-19.5987
 20
-0.944711
 30
0.00000
  70
    32
  0
VERTEX
  8
0
  5
10163
 10
-19.8944
 20
-0.843019
 30
0.00000
  70
    32
  0
VERTEX
  8
0
  5
10164
 10
-20.1909
 20
-0.747058
 30
0.00000
  70
    32
  0
VERTEX
  8
0
  5
10165
 10
-20.4880
 20
-0.656843
 30
0.00000
  70
    32
  0
VERTEX
  8
0
  5
10166
 10
-20.7858
 20
-0.572385
 30
0.00000
  70
    32
  0
VERTEX
  8
0
  5
10167
 10
-21.0843
 20
-0.493699
 30
0.00000
  70
    32
  0
VERTEX
  8
0
  5
10168
 10
-21.3833
 20
-0.420795
 30
0.00000
  70
    32
  0
VERTEX
  8
0
  5
10169
 10
-21.6828
 20
-0.353684
 30
0.00000
  70
    32
  0
VERTEX
  8
0
  5
1016A
 10
-21.9828
 20
-0.292376
 30
0.00000
  70
    32
  0
VERTEX
  8
0
  5
1016B
 10
-22.2833
 20
-0.236879
 30
0.00000
  70
    32
  0
VERTEX
  8
0
  5
1016C
 10
-22.5841
 20
-0.187203
 30
0.00000
  70
    32
  0
VERTEX
  8
0
  5
1016D
 10
-22.8853
 20
-0.143353
 30
0.00000
  70
    32
  0
VERTEX
  8
0
  5
1016E
 10
-23.1869
 20
-0.105337
 30
0.00000
  70
    32
  0
VERTEX
  8
0
  5
1016F
 10
-23.4886
 20
-0.0731608
 30
0.00000
  70
    32
  0
VERTEX
  8
0
  5
10170
 10
-23.7907
 20
-0.0468281
 30
0.00000
  70
    32
  0
VERTEX
  8
0
  5
10171
 10
-24.0928
 20
-0.0263430
 30
0.00000
  70
    32
  0
VERTEX
  8
0
  5
10172
 10
-24.3951
 20
-0.0117087
 30
0.00000
  70
    32
  0
VERTEX
  8
0
  5
10173
 10
-24.6976
 20
-0.00292729
 30
0.00000
  70
    32
  0
VERTEX
  8
0
  5
10174
 10
-25.0000
 20
0.00000
 30
0.00000
  70
    32
  0
SEQEND
  8
0
  5
10175
  0
LINE
  5
112
  8
0
 10
-25.0
 20
-0.0000000000000089
 30
0.0
 11
-45.0
 21
0.0
 31
0.0
  0
POLYLINE
  5
113
  8
0
 10
-45.0
 20
0.0
 30
0.0
 66
     1
 70
     8
  0
VERTEX
  8
0
  5
10176
 10
-45.0000
 20
0.00000
 30
0.00000
  70
    32
  0
VERTEX
  8
0
  5
10177
 10
-45.3024
 20
-0.00292729
 30
0.00000
  70
    32
  0
VERTEX
  8
0
  5
10178
 10
-45.6049
 20
-0.0117087
 30
0.00000
  70
    32
  0
VERTEX
  8
0
  5
10179
 10
-45.9072
 20
-0.0263430
 30
0.00000
  70
    32
  0
VERTEX
  8
0
  5
1017A
 10
-46.2093
 20
-0.0468281
 30
0.00000
  70
    32
  0
VERTEX
  8
0
  5
1017B
 10
-46.5114
 20
-0.0731608
 30
0.00000
  70
    32
  0
VERTEX
  8
0
  5
1017C
 10
-46.8131
 20
-0.105337
 30
0.00000
  70
    32
  0
VERTEX
  8
0
  5
1017D
 10
-47.1147
 20
-0.143353
 30
0.00000
  70
    32
  0
VERTEX
  8
0
  5
1017E
 10
-47.4159
 20
-0.187203
 30
0.00000
  70
    32
  0
VERTEX
  8
0
  5
1017F
 10
-47.7167
 20
-0.236879
 30
0.00000
  70
    32
  0
VERTEX
  8
0
  5
10180
 10
-48.0172
 20
-0.292376
 30
0.00000
  70
    32
  0
VERTEX
  8
0
  5
10181
 10
-48.3172
 20
-0.353684
 30
0.00000
  70
    32
  0
VERTEX
  8
0
  5
10182
 10
-48.6167
 20
-0.420795
 30
0.00000
  70
    32
  0
VERTEX
  8
0
  5
10183
 10
-48.9157
 20
-0.493699
 30
0.00000
  70
    32
  0
VERTEX
  8
0
  5
10184
 10
-49.2142
 20
-0.572385
 30
0.00000
  70
    32
  0
VERTEX
  8
0
  5
10185
 10
-49.5120
 20
-0.656843
 30
0.00000
  70
    32
  0
VERTEX
  8
0
  5
10186
 10
-49.8091
 20
-0.747058
 30
0.00000
  70
    32
  0
VERTEX
  8
0
  5
10187
 10
-50.1056
 20
-0.843019
 30
0.00000
  70
    32
  0
VERTEX
  8
0
  5
10188
 10
-50.4013
 20
-0.944711
 30
0.00000
  70
    32
  0
VERTEX
  8
0
  5
10189
 10
-50.6962
 20
-1.05212
 30
0.00000
  70
    32
  0
VERTEX
  8
0
  5
1018A
 10
-50.9902
 20
-1.16523
 30
0.00000
  70
    32
  0
VERTEX
  8
0
  5
1018B
 10
-51.2834
 20
-1.28402
 30
0.00000
  70
    32
  0
VERTEX
  8
0
  5
1018C
 10
-51.5757
 20
-1.40848
 30
0.00000
  70
    32
  0
VERTEX
  8
0
  5
1018D
 10
-51.8670
 20
-1.53859
 30
0.00000
  70
    32
  0
VERTEX
  8
0
  5
1018E
 10
-52.1573
 20
-1.67433
 30
0.00000
  70
    32
  0
VERTEX
  8
0
  5
1018F
 10
-52.4466
 20
-1.81567
 30
0.00000
  70
    32
  0
VERTEX
  8
0
  5
10190
 10
-52.7348
 20
-1.96261
 30
0.00000
  70
    32
  0
VERTEX
  8
0
  5
10191
 10
-53.0218
 20
-2.11511
 30
0.00000
  70
    32
  0
VERTEX
  8
0
  5
10192
 10
-53.3077
 20
-2.27316
 30
0.00000
  70
    32
  0
VERTEX
  8
0
  5
10193
 10
-53.5923
 20
-2.43673
 30
0.00000
  70
    32
  0
VERTEX
  8
0
  5
10194
 10
-53.8757
 20
-2.60580
 30
0.00000
  70
    32
  0
VERTEX
  8
0
  5
10195
 10
-54.1578
 20
-2.78034
 30
0.00000
  70
    32
  0
VERTEX
  8
0
  5
10196
 10
-54.4386
 20
-2.96033
 30
0.00000
  70
    32
  0
VERTEX
  8
0
  5
10197
 10
-54.7180
 20
-3.14574
 30
0.00000
  70
    32
  0
VERTEX
  8
0
  5
10198
 10
-54.9959
 20
-3.33654
 30
0.00000
  70
    32
  0
VERTEX
  8
0
  5
10199
 10
-55.2724
 20
-3.53271
 30
0.00000
  70
    32
  0
VERTEX
  8
0
  5
1019A
 10
-55.5474
 20
-3.73422
 30
0.00000
  70
    32
  0
VERTEX
  8
0
  5
1019B
 10
-55.8208
 20
-3.94104
 30
0.00000
  70
    32
  0
VERTEX
  8
0
  5
1019C
 10
-56.0927
 20
-4.15313
 30
0.00000
  70
    32
  0
VERTEX
  8
0
  5
1019D
 10
-56.3629
 20
-4.37047
 30
0.00000
  70
    32
  0
VERTEX
  8
0
  5
1019E
 10
-56.6315
 20
-4.59303
 30
0.00000
  70
    32
  0
VERTEX
  8
0
  5
1019F
 10
-56.8984
 20
-4.82076
 30
0.00000
  70
    32
  0
VERTEX
  8
0
  5
101A0
 10
-57.1635
 20
-5.05365
 30
0.00000
  70
    32
  0
VERTEX
  8
0
  5
101A1
 10
-57.4268
 20
-5.29165
 30
0.00000
  70
    32
  0
VERTEX
  8
0
  5
101A2
 10
-57.6884
 20
-5.53473
 30
0.00000
  70
    32
  0
VERTEX
  8
0
  5
101A3
 10
-57.9480
 20
-5.78286
 30
0.00000
  70
    32
  0
VERTEX
  8
0
  5
101A4
 10
-58.2058
 20
-6.03599
 30
0.00000
  70
    32
  0
VERTEX
  8
0
  5
101A5
 10
-58.4616
 20
-6.29410
 30
0.00000
  70
    32
  0
VERTEX
  8
0
  5
101A6
 10
-58.7155
 20
-6.55714
 30
0.00000
  70
    32
  0
VERTEX
  8
0
  5
101A7
 10
-58.9674
 20
-6.82507
 30
0.00000
  70
    32
  0
VERTEX
  8
0
  5
101A8
 10
-59.2172
 20
-7.09786
 30
0.00000
  70
    32
  0
VERTEX
  8
0
  5
101A9
 10
-59.4649
 20
-7.37546
 30
0.00000
  70
    32
  0
VERTEX
  8
0
  5
101AA
 10
-59.7106
 20
-7.65784
 30
0.00000
  70
    32
  0
VERTEX
  8
0
  5
101AB
 10
-59.9540
 20
-7.94496
 30
0.00000
  70
    32
  0
VERTEX
  8
0
  5
101AC
 10
-60.1953
 20
-8.23676
 30
0.00000
  70
    32
  0
VERTEX
  8
0
  5
101AD
 10
-60.4344
 20
-8.53322
 30
0.00000
  70
    32
  0
VERTEX
  8
0
  5
101AE
 10
-60.6712
 20
-8.83428
 30
0.00000
  70
    32
  0
VERTEX
  8
0
  5
101AF
 10
-60.9057
 20
-9.13990
 30
0.00000
  70
    32
  0
VERTEX
  8
0
  5
101B0
 10
-61.1378
 20
-9.45004
 30
0.00000
  70
    32
  0
VERTEX
  8
0
  5
101B1
 10
-61.3676
 20
-9.76465
 30
0.00000
  70
    32
  0
VERTEX
  8
0
  5
101B2
 10
-61.5951
 20
-10.0837
 30
0.00000
  70
    32
  0
VERTEX
  8
0
  5
101B3
 10
-61.8201
 20
-10.4071
 30
0.00000
  70
    32
  0
VERTEX
  8
0
  5
101B4
 10
-62.0426
 20
-10.7348
 30
0.00000
  70
    32
  0
VERTEX
  8
0
  5
101B5
 10
-62.2626
 20
-11.0669
 30
0.00000
  70
    32
  0
VERTEX
  8
0
  5
101B6
 10
-62.4801
 20
-11.4031
 30
0.00000
  70
    32
  0
VERTEX
  8
0
  5
101B7
 10
-62.6951
 20
-11.7436
 30
0.00000
  70
    32
  0
VERTEX
  8
0
  5
101B8
 10
-62.9074
 20
-12.0882
 30
0.00000
  70
    32
  0
VERTEX
  8
0
  5
101B9
 10
-63.1172
 20
-12.4368
 30
0.00000
  70
    32
  0
VERTEX
  8
0
  5
101BA
 10
-63.3242
 20
-12.7895
 30
0.00000
  70
    32
  0
VERTEX
  8
0
  5
101BB
 10
-63.5286
 20
-13.1462
 30
0.00000
  70
    32
  0
VERTEX
  8
0
  5
101BC
 10
-63.7303
 20
-13.5068
 30
0.00000
  70
    32
  0
VERTEX
  8
0
  5
101BD
 10
-63.9293
 20
-13.8713
 30
0.00000
  70
    32
  0
VERTEX
  8
0
  5
101BE
 10
-64.1255
 20
-14.2397
 30
0.00000
  70
    32
  0
VERTEX
  8
0
  5
101BF
 10
-64.3188
 20
-14.6118
 30
0.00000
  70
    32
  0
VERTEX
  8
0
  5
101C0
 10
-64.5094
 20
-14.9876
 30
0.00000
  70
    32
  0
VERTEX
  8
0
  5
101C1
 10
-64.6971
 20
-15.3670
 30
0.00000
  70
    32
  0
VERTEX
  8
0
  5
101C2
 10
-64.8819
 20
-15.7501
 30
0.00000
  70
    32
  0
VERTEX
  8
0
  5
101C3
 10
-65.0638
 20
-16.1367
 30
0.00000
  70
    32
  0
VERTEX
  8
0
  5
101C4
 10
-65.2428
 20
-16.5268
 30
0.00000
  70
    32
  0
VERTEX
  8
0
  5
101C5
 10
-65.4188
 20
-16.9204
 30
0.00000
  70
    32
  0
VERTEX
  8
0
  5
101C6
 10
-65.5918
 20
-17.3173
 30
0.00000
  70
    32
  0
VERTEX
  8
0
  5
101C7
 10
-65.7618
 20
-17.7176
 30
0.00000
  70
    32
  0
VERTEX
  8
0
  5
101C8
 10
-65.9288
 20
-18.1211
 30
0.00000
  70
    32
  0
VERTEX
  8
0
  5
101C9
 10
-66.0926
 20
-18.5278
 30
0.00000
  70
    32
  0
VERTEX
  8
0
  5
101CA
 10
-66.2535
 20
-18.9376
 30
0.00000
  70
    32
  0
VERTEX
  8
0
  5
101CB
 10
-66.4112
 20
-19.3506
 30
0.00000
  70
    32
  0
VERTEX
  8
0
  5
101CC
 10
-66.5657
 20
-19.7665
 30
0.00000
  70
    32
  0
VERTEX
  8
0
  5
101CD
 10
-66.7171
 20
-20.1854
 30
0.00000
  70
    32
  0
VERTEX
  8
0
  5
101CE
 10
-66.8654
 20
-20.6073
 30
0.00000
  70
    32
  0
VERTEX
  8
0
  5
101CF
 10
-67.0104
 20
-21.0319
 30
0.00000
  70
    32
  0
VERTEX
  8
0
  5
101D0
 10
-67.1522
 20
-21.4594
 30
0.00000
  70
    32
  0
VERTEX
  8
0
  5
101D1
 10
-67.2908
 20
-21.8895
 30
0.00000
  70
    32
  0
VERTEX
  8
0
  5
101D2
 10
-67.4261
 20
-22.3223
 30
0.00000
  70
    32
  0
VERTEX
  8
0
  5
101D3
 10
-67.5581
 20
-22.7577
 30
0.00000
  70
    32
  0
VERTEX
  8
0
  5
101D4
 10
-67.6868
 20
-23.1956
 30
0.00000
  70
    32
  0
VERTEX
  8
0
  5
101D5
 10
-67.8122
 20
-23.6360
 30
0.00000
  70
    32
  0
VERTEX
  8
0
  5
101D6
 10
-67.9343
 20
-24.0787
 30
0.00000
  70
    32
  0
VERTEX
  8
0
  5
101D7
 10
-68.0530
 20
-24.5238
 30
0.00000
  70
    32
  0
VERTEX
  8
0
  5
101D8
 10
-68.1683
 20
-24.9712
 30
0.00000
  70
    32
  0
VERTEX
  8
0
  5
101D9
 10
-68.2803
 20
-25.4208
 30
0.00000
  70
    32
  0
VERTEX
  8
0
  5
101DA
 10
-68.3888
 20
-25.8725
 30
0.00000
  70
    32
  0
VERTEX
  8
0
  5
101DB
 10
-68.4939
 20
-26.3262
 30
0.00000
  70
    32
  0
VERTEX
  8
0
  5
101DC
 10
-68.5956
 20
-26.7820
 30
0.00000
  70
    32
  0
VERTEX
  8
0
  5
101DD
 10
-68.6938
 20
-27.2397
 30
0.00000
  70
    32
  0
VERTEX
  8
0
  5
101DE
 10
-68.7886
 20
-27.6992
 30
0.00000
  70
    32
  0
VERTEX
  8
0
  5
101DF
 10
-68.8798
 20
-28.1606
 30
0.00000
  70
    32
  0
VERTEX
  8
0
  5
101E0
 10
-68.9676
 20
-28.6237
 30
0.00000
  70
    32
  0
VERTEX
  8
0
  5
101E1
 10
-69.0519
 20
-29.0885
 30
0.00000
  70
    32
  0
VERTEX
  8
0
  5
101E2
 10
-69.1326
 20
-29.5548
 30
0.00000
  70
    32
  0
VERTEX
  8
0
  5
101E3
 10
-69.2098
 20
-30.0227
 30
0.00000
  70
    32
  0
VERTEX
  8
0
  5
101E4
 10
-69.2835
 20
-30.4921
 30
0.00000
  70
    32
  0
VERTEX
  8
0
  5
101E5
 10
-69.3536
 20
-30.9628
 30
0.00000
  70
    32
  0
VERTEX
  8
0
  5
101E6
 10
-69.4201
 20
-31.4349
 30
0.00000
  70
    32
  0
VERTEX
  8
0
  5
101E7
 10
-69.4831
 20
-31.9082
 30
0.00000
  70
    32
  0
VERTEX
  8
0
  5
101E8
 10
-69.5425
 20
-32.3827
 30
0.00000
  70
    32
  0
VERTEX
  8
0
  5
101E9
 10
-69.5983
 20
-32.8583
 30
0.00000
  70
    32
  0
VERTEX
  8
0
  5
101EA
 10
-69.6505
 20
-33.3350
 30
0.00000
  70
    32
  0
VERTEX
  8
0
  5
101EB
 10
-69.6991
 20
-33.8126
 30
0.00000
  70
    32
  0
VERTEX
  8
0
  5
101EC
 10
-69.7441
 20
-34.2912
 30
0.00000
  70
    32
  0
VERTEX
  8
0
  5
101ED
 10
-69.7854
 20
-34.7706
 30
0.00000
  70
    32
  0
VERTEX
  8
0
  5
101EE
 10
-69.8232
 20
-35.2507
 30
0.00000
  70
    32
  0
VERTEX
  8
0
  5
101EF
 10
-69.8573
 20
-35.7315
 30
0.00000
  70
    32
  0
VERTEX
  8
0
  5
101F0
 10
-69.8877
 20
-36.2130
 30
0.00000
  70
    32
  0
VERTEX
  8
0
  5
101F1
 10
-69.9145
 20
-36.6950
 30
0.00000
  70
    32
  0
VERTEX
  8
0
  5
101F2
 10
-69.9377
 20
-37.1775
 30
0.00000
  70
    32
  0
VERTEX
  8
0
  5
101F3
 10
-69.9572
 20
-37.6604
 30
0.00000
  70
    32
  0
VERTEX
  8
0
  5
101F4
 10
-69.9731
 20
-38.1437
 30
0.00000
  70
    32
  0
VERTEX
  8
0
  5
101F5
 10
-69.9853
 20
-38.6272
 30
0.00000
  70
    32
  0
VERTEX
  8
0
  5
101F6
 10
-69.9938
 20
-39.1110
 30
0.00000
  70
    32
  0
SEQEND
  8
0
  5
101F7
  0
ARC
  5
114
  8
0
 10
-69.0
 20
-39.0
 30
0.0
 40
1.0000000000000051
 50
186.3709220497204058
 51
270.0
  0
LINE
  5
115
  8
0
 10
-69.0
 20
-40.0
 30
0.0
 11
-56.6500000000000128
 21
-40.0
 31
0.0
  0
ARC
  5
116
  8
0
 10
-56.6500000000000199
 20
-41.0000000000000071
 30
0.0
 40
1.0000000000000231
 50
0.0
 51
89.9999999999991758
  0
LINE
  5
117
  8
0
 10
-55.6499999999999915
 20
-41.0000000000000071
 30
0.0
 11
-55.6499999999999915
 21
-89.0000000000000284
 31
0.0
  0
ARC
  5
118
  8
0
 10
-56.6500000000000128
 20
-88.9999999999999858
 30
0.0
 40
1.000000000000014
 50
270.0000000000003979
 51
360.0
  0
LINE
  5
119
  8
0
 10
-56.6499999999999986
 20
-90.0
 30
0.0
 11
-69.0
 21
-90.0
 31
0.0
  0
ARC
  5
120
  8
0
 10
-69.0
 20
-91.0
 30
0.0
 40
0.9999999999999964
 50
90.0
 51
180.0
  0
LINE
  5
121
  8
0
 10
-70.0
 20
-91.0
 30
0.0
 11
-70.0
 21
-109.0
 31
0.0
  0
ARC
  5
122
  8
0
 10
-69.0
 20
-109.0
 30
0.0
 40
0.9999999999999964
 50
180.0
 51
270.0
  0
LINE
  5
123
  8
0
 10
-69.0
 20
-110.0
 30
0.0
 11
-0.9999999999999964
 21
-110.0
 31
0.0
  0
ARC
  5
124
  8
0
 10
-0.9999999999999984
 20
-109.0
 30
0.0
 40
0.9999999999999964
 50
-89.9999999999999147
 51
0.0
  0
LINE
  5
125
  8
0
 10
-0.0000000000000019
 20
-109.0
 30
0.0
 11
0.0
 21
-91.0
 31
0.0
  0
ARC
  5
126
  8
0
 10
-0.9999999999999984
 20
-91.0
 30
0.0
 40
0.9999999999999984
 50
0.0
 51
90.0000000000001137
  0
LINE
  5
127
  8
0
 10
-1.0000000000000011
 20
-90.0
 30
0.0
 11
-13.3499999999999996
 21
-90.0
 31
0.0
  0
ARC
  5
128
  8
0
 10
-13.3499999999999996
 20
-89.0
 30
0.0
 40
1.0
 50
180.0
 51
270.0
  0
LINE
  5
129
  8
0
 10
-14.3499999999999996
 20
-89.0
 30
0.0
 11
-14.3499999999999996
 21
-41.0000000000000071
 31
0.0
  0
ARC
  5
130
  8
0
 10
-13.3499999999999801
 20
-41.0000000000000071
 30
0.0
 40
1.0000000000000231
 50
90.0000000000003837
 51
180.0
  0
POLYLINE
  5
131
  8
0
 66
     1
 10
0.0
 20
0.0
 30
0.0
 70
     1
  0
VERTEX
  5
1007B
  8
0
 10
-6.3167937997236248
 20
-30.8298714437739783
 30
0.0
  0
VERTEX
  5
1007C
  8
0
 10
-9.3053778939988607
 20
-30.5684042155310109
 30
0.0
 42
-1.0
  0
VERTEX
  5
1007D
  8
0
 10
-9.0439106657558952
 20
-27.5798201212557714
 30
0.0
  0
VERTEX
  5
1007E
  8
0
 10
-6.0553265714806521
 20
-27.8412873494987387
 30
0.0
 42
-1.0
  0
SEQEND
  5
1007F
  8
0
  0
CIRCLE
  5
132
  8
0
 10
-35.0
 20
-30.0000000000000107
 30
0.0
 40
7.5
  0
POLYLINE
  5
133
  8
0
 66
     1
 10
0.0
 20
0.0
 30
0.0
 70
     1
  0
VERTEX
  5
10080
  8
0
 10
-63.9446734285193585
 20
-27.8412873494987387
 30
0.0
 42
0.9999999925494194
  0
VERTEX
  5
10081
  8
0
 10
-63.6832062002763593
 20
-30.8298714437739712
 30
0.0
  0
VERTEX
  5
10082
  8
0
 10
-60.6946221060011197
 20
-30.5684042155310109
 30
0.0
 42
1.0
  0
VERTEX
  5
10083
  8
0
 10
-60.9560893342440977
 20
-27.5798201212557714
 30
0.0
  0
SEQEND
  5
10084
  8
0
  0
POLYLINE
  5
134
  8
0
 66
     1
 10
0.0
 20
0.0
 30
0.0
 70
     1
  0
VERTEX
  5
10085
  8
0
 10
-20.75
 20
-90.0
 30
0.0
  0
VERTEX
  5
10086
  8
0
 10
-14.3499999999999996
 20
-90.0
 30
0.0
  0
VERTEX
  5
10087
  8
0
 10
-14.3499999999999996
 20
-40.0
 30
0.0
  0
VERTEX
  5
10088
  8
0
 10
-20.75
 20
-40.0
 30
0.0
  0
SEQEND
  5
10089
  8
0
  0
LINE
  5
135
  8
0
 10
-35.0
 20
-0.0000000000000044
 30
0.0
 11
-35.0
 21
-110.0
 31
0.0
  0
POLYLINE
  5
136
  8
0
 66
     1
 10
0.0
 20
0.0
 30
0.0
 70
     1
  0
VERTEX
  5
1008A
  8
0
 10
-49.25
 20
-40.0
 30
0.0
  0
VERTEX
  5
1008B
  8
0
 10
-49.25
 20
-90.0
 30
0.0
  0
VERTEX
  5
1008C
  8
0
 10
-55.6499999999999915
 20
-90.0
 30
0.0
  0
VERTEX
  5
1008D
  8
0
 10
-55.6499999999999915
 20
-40.0
 30
0.0
  0
SEQEND
  5
1008E
  8
0
  0
CIRCLE
  5
137
  8
0
 10
-35.0
 20
-30.0000000000000107
 30
0.0
 40
15.0
  0
POLYLINE
  5
138
  8
0
 66
     1
 10
0.0
 20
0.0
 30
0.0
 70
     1
  0
VERTEX
  5
1008F
  8
0
 10
-19.5499999999999794
 20
-105.2999999999999972
 30
0.0
  0
VERTEX
  5
10090
  8
0
 10
-14.3499999999999801
 20
-105.2999999999999972
 30
0.0
  0
VERTEX
  5
10091
  8
0
 10
-14.3499999999999801
 20
-109.8999999999999062
 30
0.0
  0
VERTEX
  5
10092
  8
0
 10
-19.5499999999999794
 20
-109.8999999999999062
 30
0.0
  0
SEQEND
  5
10093
  8
0
  0
POLYLINE
  5
139
  8
0
 66
     1
 10
0.0
 20
0.0
 30
0.0
 70
     1
  0
VERTEX
  5
10094
  8
0
 10
-50.4500000000000099
 20
-105.2999999999999972
 30
0.0
  0
VERTEX
  5
10095
  8
0
 10
-55.6500000000000128
 20
-105.2999999999999972
 30
0.0
  0
VERTEX
  5
10096
  8
0
 10
-55.6500000000000128
 20
-109.8999999999999062
 30
0.0
  0
VERTEX
  5
10097
  8
0
 10
-50.4500000000000099
 20
-109.8999999999999062
 30
0.0
  0
SEQEND
  5
10098
  8
0
  0
POLYLINE
  5
140
  8
0
 66
     1
 10
0.0
 20
0.0
 30
0.0
 70
     1
  0
VERTEX
  5
10099
  8
0
 10
-20.75
 20
-90.0
 30
0.0
  0
VERTEX
  5
1009A
  8
0
 10
-14.3499999999999996
 20
-90.0
 30
0.0
  0
VERTEX
  5
1009B
  8
0
 10
-14.3499999999999996
 20
-91.5
 30
0.0
  0
VERTEX
  5
1009C
  8
0
 10
-20.75
 20
-91.5
 30
0.0
  0
SEQEND
  5
1009D
  8
0
  0
LINE
  5
141
  8
0
 10
-55.6499999999999915
 20
-91.5
 30
0.0
 11
-49.25
 21
-91.5
 31
0.0
  0
LINE
  5
142
  8
0
 10
-55.6499999999999915
 20
-90.0
 30
0.0
 11
-55.6499999999999915
 21
-91.5
 31
0.0
  0
LINE
  5
143
  8
0
 10
-49.25
 20
-91.5
 30
0.0
 11
-49.25
 21
-90.0
 31
0.0
  0
POLYLINE
  5
144
  8
0
 66
     1
 10
0.0
 20
0.0
 30
0.0
 70
     1
  0
VERTEX
  5
1009E
  8
0
 10
-4.2969932386730871
 20
-32.4119288680098805
 30
0.0
  0
VERTEX
  5
1009F
  8
0
 10
-11.5692145347428301
 20
-31.7756919459519906
 30
0.0
  0
VERTEX
  5
100A0
  8
0
 10
-11.0637112268064293
 20
-25.9977626970198692
 30
0.0
  0
VERTEX
  5
100A1
  8
0
 10
-3.7914899307366841
 20
-26.6339996190777484
 30
0.0
  0
SEQEND
  5
100A2
  8
0
  0
LINE
  5
145
  8
0
 10
-7.9331038867079577
 20
-32.0938104069809427
 30
0.0
 11
-8.2651672665765261
 21
-35.8893122067104926
 31
0.0
  0
LINE
  5
146
  8
0
 10
-9.3089589465740001
 20
-33.248289880267933
 30
0.0
 11
-6.7786244134209639
 21
-33.4696654668469833
 31
0.0
  0
LINE
  5
147
  8
0
 10
-9.5303345331530434
 20
-35.778624413420971
 30
0.0
 11
-7.0000000000000142
 21
-36.0000000000000071
 31
0.0
  0
POLYLINE
  5
148
  8
0
 66
     1
 10
0.0
 20
0.0
 30
0.0
 70
     1
  0
VERTEX
  5
100A3
  8
0
 10
-25.1486150610987202
 20
-11.3187944880974101
 30
0.0
  0
VERTEX
  5
100A4
  8
0
 10
-27.8832436870184885
 20
-4.550352549342211
 30
0.0
  0
VERTEX
  5
100A5
  8
0
 10
-22.5055774891034091
 20
-2.377633915049794
 30
0.0
  0
VERTEX
  5
100A6
  8
0
 10
-19.7709488631836408
 20
-9.1460758538049856
 30
0.0
  0
SEQEND
  5
100A7
  8
0
  0
LINE
  5
149
  8
0
 10
-26.5159293740586008
 20
-7.934573518719807
 30
0.0
 11
-30.0484997557924807
 21
-9.3618248974532765
 31
0.0
  0
LINE
  5
150
  8
0
 10
-28.1692032942143911
 20
-7.2328005177196708
 30
0.0
 11
-27.2177023750587317
 21
-9.5878474388755901
 31
0.0
  0
LINE
  5
151
  8
0
 10
-30.5242502153703015
 20
-8.1843014368753213
 30
0.0
 11
-29.5727492962146599
 21
-10.5393483580312299
 31
0.0
  0
POLYLINE
  5
152
  8
0
 66
     1
 10
0.0
 20
0.0
 30
0.0
 70
     1
  0
VERTEX
  5
100A8
  8
0
 10
-42.1167563129815079
 20
-4.550352549342211
 30
0.0
  0
VERTEX
  5
100A9
  8
0
 10
-47.4944225108965981
 20
-2.377633915049794
 30
0.0
  0
VERTEX
  5
100AA
  8
0
 10
-50.2290511368163735
 20
-9.1460758538049856
 30
0.0
  0
VERTEX
  5
100AB
  8
0
 10
-44.8513849389012833
 20
-11.3187944880974101
 30
0.0
  0
SEQEND
  5
100AC
  8
0
  0
LINE
  5
153
  8
0
 10
-43.4840706259413992
 20
-7.934573518719807
 30
0.0
 11
-39.9515002442075229
 21
-9.3618248974532765
 31
0.0
  0
LINE
  5
154
  8
0
 10
-41.8307967057856018
 20
-7.2328005177196708
 30
0.0
 11
-42.7822976249412719
 21
-9.5878474388755901
 31
0.0
  0
LINE
  5
155
  8
0
 10
-39.4757497846296914
 20
-8.1843014368753213
 30
0.0
 11
-40.4272507037853401
 21
-10.5393483580312299
 31
0.0
  0
POLYLINE
  5
156
  8
0
 66
     1
 10
0.0
 20
0.0
 30
0.0
 70
     1
  0
VERTEX
  5
100AD
  8
0
 10
-58.9362887731935672
 20
-25.9977626970198692
 30
0.0
  0
VERTEX
  5
100AE
  8
0
 10
-66.2085100692633119
 20
-26.6339996190777484
 30
0.0
  0
VERTEX
  5
100AF
  8
0
 10
-65.7030067613268756
 20
-32.4119288680098805
 30
0.0
  0
VERTEX
  5
100B0
  8
0
 10
-58.4307854652571734
 20
-31.7756919459519906
 30
0.0
  0
SEQEND
  5
100B1
  8
0
  0
LINE
  5
157
  8
0
 10
-62.0668961132920387
 20
-32.0938104069809427
 30
0.0
 11
-61.7348327334234668
 21
-35.8893122067104926
 31
0.0
  0
LINE
  5
158
  8
0
 10
-60.691041053425991
 20
-33.248289880267933
 30
0.0
 11
-63.221375586579029
 21
-33.4696654668469833
 31
0.0
  0
LINE
  5
159
  8
0
 10
-60.469665466846962
 20
-35.778624413420971
 30
0.0
 11
-62.9999999999999929
 21
-36.0000000000000071
 31
0.0
  0
POLYLINE
  5
160
  8
0
 66
     1
 10
0.0
 20
0.0
 30
0.0
 70
     1
  0
VERTEX
  5
100B2
  8
0
 10
-20.75
 20
-73.5
 30
0.0
  0
VERTEX
  5
100B3
  8
0
 10
-49.25
 20
-73.5
 30
0.0
  0
VERTEX
  5
100B4
  8
0
 10
-49.25
 20
-56.4999999999999929
 30
0.0
  0
VERTEX
  5
100B5
  8
0
 10
-20.75
 20
-56.4999999999999929
 30
0.0
  0
SEQEND
  5
100B6
  8
0
  0
ENDSEC
  0
EOF
