G04 #@! TF.GenerationSoftware,KiCad,Pcbnew,7.0.9-7.0.9~ubuntu22.04.1*
G04 #@! TF.CreationDate,2023-12-19T11:18:58+09:00*
G04 #@! TF.ProjectId,fast_respect,66617374-5f72-4657-9370-6563742e6b69,rev?*
G04 #@! TF.SameCoordinates,Original*
G04 #@! TF.FileFunction,Soldermask,Bot*
G04 #@! TF.FilePolarity,Negative*
%FSLAX46Y46*%
G04 Gerber Fmt 4.6, Leading zero omitted, Abs format (unit mm)*
G04 Created by KiCad (PCBNEW 7.0.9-7.0.9~ubuntu22.04.1) date 2023-12-19 11:18:58*
%MOMM*%
%LPD*%
G01*
G04 APERTURE LIST*
G04 Aperture macros list*
%AMRoundRect*
0 Rectangle with rounded corners*
0 $1 Rounding radius*
0 $2 $3 $4 $5 $6 $7 $8 $9 X,Y pos of 4 corners*
0 Add a 4 corners polygon primitive as box body*
4,1,4,$2,$3,$4,$5,$6,$7,$8,$9,$2,$3,0*
0 Add four circle primitives for the rounded corners*
1,1,$1+$1,$2,$3*
1,1,$1+$1,$4,$5*
1,1,$1+$1,$6,$7*
1,1,$1+$1,$8,$9*
0 Add four rect primitives between the rounded corners*
20,1,$1+$1,$2,$3,$4,$5,0*
20,1,$1+$1,$4,$5,$6,$7,0*
20,1,$1+$1,$6,$7,$8,$9,0*
20,1,$1+$1,$8,$9,$2,$3,0*%
%AMHorizOval*
0 Thick line with rounded ends*
0 $1 width*
0 $2 $3 position (X,Y) of the first rounded end (center of the circle)*
0 $4 $5 position (X,Y) of the second rounded end (center of the circle)*
0 Add line between two ends*
20,1,$1,$2,$3,$4,$5,0*
0 Add two circle primitives to create the rounded ends*
1,1,$1,$2,$3*
1,1,$1,$4,$5*%
%AMRotRect*
0 Rectangle, with rotation*
0 The origin of the aperture is its center*
0 $1 length*
0 $2 width*
0 $3 Rotation angle, in degrees counterclockwise*
0 Add horizontal line*
21,1,$1,$2,0,0,$3*%
%AMFreePoly0*
4,1,5,0.850000,-1.250000,-0.850000,-1.250000,-0.850000,1.250000,0.850000,1.250000,0.850000,-1.250000,0.850000,-1.250000,$1*%
G04 Aperture macros list end*
%ADD10RotRect,1.800000X1.800000X185.000000*%
%ADD11C,1.800000*%
%ADD12HorizOval,1.200000X0.199239X-0.017431X-0.199239X0.017431X0*%
%ADD13HorizOval,1.200000X0.000000X0.000000X0.000000X0.000000X0*%
%ADD14R,1.700000X1.700000*%
%ADD15O,1.700000X1.700000*%
%ADD16RoundRect,0.250000X0.625000X-0.350000X0.625000X0.350000X-0.625000X0.350000X-0.625000X-0.350000X0*%
%ADD17O,1.750000X1.200000*%
%ADD18RotRect,1.800000X1.800000X68.000000*%
%ADD19O,2.500000X1.700000*%
%ADD20FreePoly0,270.000000*%
%ADD21RoundRect,0.250000X0.600000X0.600000X-0.600000X0.600000X-0.600000X-0.600000X0.600000X-0.600000X0*%
%ADD22C,1.700000*%
%ADD23R,2.250000X2.250000*%
%ADD24C,2.250000*%
%ADD25HorizOval,1.200000X0.074921X0.185437X-0.074921X-0.185437X0*%
%ADD26HorizOval,1.200000X0.000000X0.000000X0.000000X0.000000X0*%
%ADD27RotRect,1.800000X1.800000X112.000000*%
%ADD28HorizOval,1.200000X-0.199239X-0.017431X0.199239X0.017431X0*%
%ADD29HorizOval,1.200000X0.000000X0.000000X0.000000X0.000000X0*%
%ADD30RotRect,1.800000X1.800000X355.000000*%
%ADD31C,1.524000*%
%ADD32RoundRect,0.250000X-0.600000X-0.600000X0.600000X-0.600000X0.600000X0.600000X-0.600000X0.600000X0*%
%ADD33HorizOval,1.200000X-0.074921X0.185437X0.074921X-0.185437X0*%
%ADD34HorizOval,1.200000X0.000000X0.000000X0.000000X0.000000X0*%
G04 APERTURE END LIST*
D10*
X114530000Y-75779000D03*
D11*
X111999665Y-76000376D03*
D12*
X165691000Y-73248000D03*
D13*
X168221335Y-73469376D03*
D14*
X165700000Y-147730000D03*
D15*
X163160000Y-147730000D03*
X165700000Y-145190000D03*
X163160000Y-145190000D03*
X165700000Y-142650000D03*
X163160000Y-142650000D03*
X165700000Y-140110000D03*
X163160000Y-140110000D03*
D16*
X160080000Y-76000000D03*
D17*
X160080000Y-74000000D03*
D18*
X134573000Y-50539000D03*
D11*
X135524501Y-48183953D03*
D19*
X153350000Y-141330000D03*
D20*
X153350000Y-143870000D03*
D21*
X136320000Y-124380000D03*
D22*
X133780000Y-124380000D03*
X136320000Y-121840000D03*
X133780000Y-121840000D03*
X136320000Y-119300000D03*
X133780000Y-119300000D03*
D23*
X107500000Y-144000000D03*
D24*
X107500000Y-137500000D03*
D25*
X132218000Y-49588000D03*
D26*
X133169501Y-47232953D03*
D23*
X112000000Y-144000000D03*
D24*
X112000000Y-137500000D03*
D27*
X145427000Y-50539000D03*
D11*
X144475499Y-48183953D03*
D28*
X114309000Y-73248000D03*
D29*
X111778665Y-73469376D03*
D30*
X165470000Y-75779000D03*
D11*
X168000335Y-76000376D03*
D31*
X171120000Y-142650000D03*
X171120000Y-145190000D03*
X171120000Y-147730000D03*
D32*
X143680000Y-119300000D03*
D22*
X146220000Y-119300000D03*
X143680000Y-121840000D03*
X146220000Y-121840000D03*
X143680000Y-124380000D03*
X146220000Y-124380000D03*
D23*
X116500000Y-144000000D03*
D24*
X116500000Y-137500000D03*
D33*
X147782000Y-49588000D03*
D34*
X146830499Y-47232953D03*
M02*
