G04 #@! TF.GenerationSoftware,KiCad,Pcbnew,7.0.9-7.0.9~ubuntu22.04.1*
G04 #@! TF.CreationDate,2023-12-15T19:10:04+09:00*
G04 #@! TF.ProjectId,fast_respect,66617374-5f72-4657-9370-6563742e6b69,rev?*
G04 #@! TF.SameCoordinates,Original*
G04 #@! TF.FileFunction,Soldermask,Top*
G04 #@! TF.FilePolarity,Negative*
%FSLAX46Y46*%
G04 Gerber Fmt 4.6, Leading zero omitted, Abs format (unit mm)*
G04 Created by KiCad (PCBNEW 7.0.9-7.0.9~ubuntu22.04.1) date 2023-12-15 19:10:04*
%MOMM*%
%LPD*%
G01*
G04 APERTURE LIST*
G04 Aperture macros list*
%AMRoundRect*
0 Rectangle with rounded corners*
0 $1 Rounding radius*
0 $2 $3 $4 $5 $6 $7 $8 $9 X,Y pos of 4 corners*
0 Add a 4 corners polygon primitive as box body*
4,1,4,$2,$3,$4,$5,$6,$7,$8,$9,$2,$3,0*
0 Add four circle primitives for the rounded corners*
1,1,$1+$1,$2,$3*
1,1,$1+$1,$4,$5*
1,1,$1+$1,$6,$7*
1,1,$1+$1,$8,$9*
0 Add four rect primitives between the rounded corners*
20,1,$1+$1,$2,$3,$4,$5,0*
20,1,$1+$1,$4,$5,$6,$7,0*
20,1,$1+$1,$6,$7,$8,$9,0*
20,1,$1+$1,$8,$9,$2,$3,0*%
%AMHorizOval*
0 Thick line with rounded ends*
0 $1 width*
0 $2 $3 position (X,Y) of the first rounded end (center of the circle)*
0 $4 $5 position (X,Y) of the second rounded end (center of the circle)*
0 Add line between two ends*
20,1,$1,$2,$3,$4,$5,0*
0 Add two circle primitives to create the rounded ends*
1,1,$1,$2,$3*
1,1,$1,$4,$5*%
%AMRotRect*
0 Rectangle, with rotation*
0 The origin of the aperture is its center*
0 $1 length*
0 $2 width*
0 $3 Rotation angle, in degrees counterclockwise*
0 Add horizontal line*
21,1,$1,$2,0,0,$3*%
%AMFreePoly0*
4,1,5,0.850000,-1.250000,-0.850000,-1.250000,-0.850000,1.250000,0.850000,1.250000,0.850000,-1.250000,0.850000,-1.250000,$1*%
G04 Aperture macros list end*
%ADD10RoundRect,0.237500X-0.250000X-0.237500X0.250000X-0.237500X0.250000X0.237500X-0.250000X0.237500X0*%
%ADD11RotRect,1.800000X1.800000X185.000000*%
%ADD12C,1.800000*%
%ADD13R,1.050000X0.650000*%
%ADD14RoundRect,0.237500X0.237500X-0.300000X0.237500X0.300000X-0.237500X0.300000X-0.237500X-0.300000X0*%
%ADD15RoundRect,0.237500X0.250000X0.237500X-0.250000X0.237500X-0.250000X-0.237500X0.250000X-0.237500X0*%
%ADD16RoundRect,0.250000X0.800000X-0.450000X0.800000X0.450000X-0.800000X0.450000X-0.800000X-0.450000X0*%
%ADD17RoundRect,0.237500X0.300000X0.237500X-0.300000X0.237500X-0.300000X-0.237500X0.300000X-0.237500X0*%
%ADD18R,0.650000X0.350000*%
%ADD19R,0.450000X0.350000*%
%ADD20R,1.930000X2.450000*%
%ADD21RoundRect,0.237500X-0.237500X0.300000X-0.237500X-0.300000X0.237500X-0.300000X0.237500X0.300000X0*%
%ADD22RoundRect,0.237500X0.287500X0.237500X-0.287500X0.237500X-0.287500X-0.237500X0.287500X-0.237500X0*%
%ADD23HorizOval,1.200000X0.199239X-0.017431X-0.199239X0.017431X0*%
%ADD24HorizOval,1.200000X0.000000X0.000000X0.000000X0.000000X0*%
%ADD25RoundRect,0.200000X-0.275000X0.200000X-0.275000X-0.200000X0.275000X-0.200000X0.275000X0.200000X0*%
%ADD26RoundRect,0.237500X0.237500X-0.250000X0.237500X0.250000X-0.237500X0.250000X-0.237500X-0.250000X0*%
%ADD27RoundRect,0.150000X-0.587500X-0.150000X0.587500X-0.150000X0.587500X0.150000X-0.587500X0.150000X0*%
%ADD28RoundRect,0.237500X-0.300000X-0.237500X0.300000X-0.237500X0.300000X0.237500X-0.300000X0.237500X0*%
%ADD29R,1.700000X1.700000*%
%ADD30O,1.700000X1.700000*%
%ADD31RoundRect,0.250000X0.625000X-0.350000X0.625000X0.350000X-0.625000X0.350000X-0.625000X-0.350000X0*%
%ADD32O,1.750000X1.200000*%
%ADD33RoundRect,0.075000X-0.075000X0.700000X-0.075000X-0.700000X0.075000X-0.700000X0.075000X0.700000X0*%
%ADD34RoundRect,0.075000X-0.700000X0.075000X-0.700000X-0.075000X0.700000X-0.075000X0.700000X0.075000X0*%
%ADD35RotRect,1.800000X1.800000X68.000000*%
%ADD36O,2.500000X1.700000*%
%ADD37FreePoly0,270.000000*%
%ADD38RoundRect,0.237500X-0.237500X0.287500X-0.237500X-0.287500X0.237500X-0.287500X0.237500X0.287500X0*%
%ADD39RoundRect,0.250000X0.600000X0.600000X-0.600000X0.600000X-0.600000X-0.600000X0.600000X-0.600000X0*%
%ADD40C,1.700000*%
%ADD41RoundRect,0.150000X-0.150000X0.587500X-0.150000X-0.587500X0.150000X-0.587500X0.150000X0.587500X0*%
%ADD42R,2.250000X2.250000*%
%ADD43C,2.250000*%
%ADD44RoundRect,0.150000X0.150000X-0.587500X0.150000X0.587500X-0.150000X0.587500X-0.150000X-0.587500X0*%
%ADD45RoundRect,0.150000X0.587500X0.150000X-0.587500X0.150000X-0.587500X-0.150000X0.587500X-0.150000X0*%
%ADD46HorizOval,1.200000X0.074921X0.185437X-0.074921X-0.185437X0*%
%ADD47HorizOval,1.200000X0.000000X0.000000X0.000000X0.000000X0*%
%ADD48R,0.250000X0.750000*%
%ADD49R,3.975000X1.000000*%
%ADD50RoundRect,0.087500X-0.412500X-0.087500X0.412500X-0.087500X0.412500X0.087500X-0.412500X0.087500X0*%
%ADD51RoundRect,0.087500X-0.087500X-0.412500X0.087500X-0.412500X0.087500X0.412500X-0.087500X0.412500X0*%
%ADD52RotRect,1.800000X1.800000X112.000000*%
%ADD53HorizOval,1.200000X-0.199239X-0.017431X0.199239X0.017431X0*%
%ADD54HorizOval,1.200000X0.000000X0.000000X0.000000X0.000000X0*%
%ADD55RotRect,1.800000X1.800000X355.000000*%
%ADD56C,1.524000*%
%ADD57RoundRect,0.102000X1.200000X-0.725000X1.200000X0.725000X-1.200000X0.725000X-1.200000X-0.725000X0*%
%ADD58RoundRect,0.250000X-0.600000X-0.600000X0.600000X-0.600000X0.600000X0.600000X-0.600000X0.600000X0*%
%ADD59R,2.000000X1.500000*%
%ADD60R,2.000000X3.800000*%
%ADD61R,1.500000X2.000000*%
%ADD62R,3.800000X2.000000*%
%ADD63HorizOval,1.200000X-0.074921X0.185437X0.074921X-0.185437X0*%
%ADD64HorizOval,1.200000X0.000000X0.000000X0.000000X0.000000X0*%
G04 APERTURE END LIST*
D10*
X149837500Y-57000000D03*
X151662500Y-57000000D03*
D11*
X114530000Y-75779000D03*
D12*
X111999665Y-76000376D03*
D13*
X166275000Y-136825000D03*
X162125000Y-136825000D03*
X166275000Y-134675000D03*
X162150000Y-134675000D03*
D14*
X146050000Y-86962500D03*
X146050000Y-85237500D03*
D15*
X158690000Y-67100000D03*
X156865000Y-67100000D03*
D16*
X156300000Y-78800000D03*
X156300000Y-74400000D03*
D14*
X142850000Y-105975000D03*
X142850000Y-104250000D03*
D17*
X143062500Y-134400000D03*
X141337500Y-134400000D03*
D18*
X150050000Y-139800000D03*
X150050000Y-141750000D03*
X150050000Y-141100000D03*
X150050000Y-140450000D03*
D19*
X147000000Y-141750000D03*
X147000000Y-141100000D03*
D20*
X148190000Y-140775000D03*
D19*
X147000000Y-140450000D03*
X147000000Y-139800000D03*
D21*
X142850000Y-130637500D03*
X142850000Y-132362500D03*
D22*
X173375000Y-133600000D03*
X171625000Y-133600000D03*
D23*
X165691000Y-73248000D03*
D24*
X168221335Y-73469376D03*
D22*
X173375000Y-132000000D03*
X171625000Y-132000000D03*
D10*
X157087500Y-141000000D03*
X158912500Y-141000000D03*
D21*
X120610000Y-76815000D03*
X120610000Y-78540000D03*
D25*
X127250000Y-86425000D03*
X127250000Y-88075000D03*
D10*
X149837500Y-55250000D03*
X151662500Y-55250000D03*
D26*
X109600000Y-76912500D03*
X109600000Y-75087500D03*
D27*
X150912500Y-88550000D03*
X150912500Y-90450000D03*
X152787500Y-89500000D03*
D28*
X170020000Y-135520000D03*
X171745000Y-135520000D03*
D10*
X150687500Y-92000000D03*
X152512500Y-92000000D03*
D29*
X165700000Y-147730000D03*
D30*
X163160000Y-147730000D03*
X165700000Y-145190000D03*
X163160000Y-145190000D03*
X165700000Y-142650000D03*
X163160000Y-142650000D03*
X165700000Y-140110000D03*
X163160000Y-140110000D03*
D17*
X144362500Y-138500000D03*
X142637500Y-138500000D03*
D31*
X160080000Y-76000000D03*
D32*
X160080000Y-74000000D03*
D33*
X143750000Y-86325000D03*
X143250000Y-86325000D03*
X142750000Y-86325000D03*
X142250000Y-86325000D03*
X141750000Y-86325000D03*
X141250000Y-86325000D03*
X140750000Y-86325000D03*
X140250000Y-86325000D03*
X139750000Y-86325000D03*
X139250000Y-86325000D03*
X138750000Y-86325000D03*
X138250000Y-86325000D03*
X137750000Y-86325000D03*
X137250000Y-86325000D03*
X136750000Y-86325000D03*
X136250000Y-86325000D03*
D34*
X134325000Y-88250000D03*
X134325000Y-88750000D03*
X134325000Y-89250000D03*
X134325000Y-89750000D03*
X134325000Y-90250000D03*
X134325000Y-90750000D03*
X134325000Y-91250000D03*
X134325000Y-91750000D03*
X134325000Y-92250000D03*
X134325000Y-92750000D03*
X134325000Y-93250000D03*
X134325000Y-93750000D03*
X134325000Y-94250000D03*
X134325000Y-94750000D03*
X134325000Y-95250000D03*
X134325000Y-95750000D03*
D33*
X136250000Y-97675000D03*
X136750000Y-97675000D03*
X137250000Y-97675000D03*
X137750000Y-97675000D03*
X138250000Y-97675000D03*
X138750000Y-97675000D03*
X139250000Y-97675000D03*
X139750000Y-97675000D03*
X140250000Y-97675000D03*
X140750000Y-97675000D03*
X141250000Y-97675000D03*
X141750000Y-97675000D03*
X142250000Y-97675000D03*
X142750000Y-97675000D03*
X143250000Y-97675000D03*
X143750000Y-97675000D03*
D34*
X145675000Y-95750000D03*
X145675000Y-95250000D03*
X145675000Y-94750000D03*
X145675000Y-94250000D03*
X145675000Y-93750000D03*
X145675000Y-93250000D03*
X145675000Y-92750000D03*
X145675000Y-92250000D03*
X145675000Y-91750000D03*
X145675000Y-91250000D03*
X145675000Y-90750000D03*
X145675000Y-90250000D03*
X145675000Y-89750000D03*
X145675000Y-89250000D03*
X145675000Y-88750000D03*
X145675000Y-88250000D03*
D21*
X130750000Y-86500000D03*
X130750000Y-88225000D03*
D15*
X123135000Y-68700000D03*
X121310000Y-68700000D03*
X128662500Y-106000000D03*
X126837500Y-106000000D03*
D28*
X150610000Y-82900000D03*
X152335000Y-82900000D03*
D35*
X134573000Y-50539000D03*
D12*
X135524501Y-48183953D03*
D26*
X160270000Y-68925000D03*
X160270000Y-67100000D03*
D15*
X128662500Y-102000000D03*
X126837500Y-102000000D03*
X108662500Y-147000000D03*
X106837500Y-147000000D03*
D36*
X153350000Y-141330000D03*
D37*
X153350000Y-143870000D03*
D38*
X107500000Y-132625000D03*
X107500000Y-134375000D03*
D39*
X136320000Y-124380000D03*
D40*
X133780000Y-124380000D03*
X136320000Y-121840000D03*
X133780000Y-121840000D03*
X136320000Y-119300000D03*
X133780000Y-119300000D03*
D10*
X168087500Y-132000000D03*
X169912500Y-132000000D03*
D15*
X130162500Y-57000000D03*
X128337500Y-57000000D03*
X128662500Y-100000000D03*
X126837500Y-100000000D03*
D41*
X160250000Y-63422500D03*
X158350000Y-63422500D03*
X159300000Y-65297500D03*
D26*
X170400000Y-75912500D03*
X170400000Y-74087500D03*
D21*
X146800000Y-144137500D03*
X146800000Y-145862500D03*
D42*
X107500000Y-144000000D03*
D43*
X107500000Y-137500000D03*
D44*
X124700000Y-57087500D03*
X126600000Y-57087500D03*
X125650000Y-55212500D03*
D45*
X136437500Y-112450000D03*
X136437500Y-110550000D03*
X134562500Y-111500000D03*
D21*
X132250000Y-95250000D03*
X132250000Y-96975000D03*
D28*
X143250000Y-99500000D03*
X144975000Y-99500000D03*
D17*
X124862500Y-78250000D03*
X123137500Y-78250000D03*
D46*
X132218000Y-49588000D03*
D47*
X133169501Y-47232953D03*
D48*
X141250000Y-130925000D03*
X140750000Y-130925000D03*
X140250000Y-130925000D03*
X139750000Y-130925000D03*
X139250000Y-130925000D03*
X138750000Y-130925000D03*
D49*
X140000000Y-132000000D03*
D48*
X138750000Y-133075000D03*
X139250000Y-133075000D03*
X139750000Y-133075000D03*
X140250000Y-133075000D03*
X140750000Y-133075000D03*
X141250000Y-133075000D03*
D15*
X165312500Y-132950000D03*
X163487500Y-132950000D03*
D14*
X144400000Y-132362500D03*
X144400000Y-130637500D03*
D42*
X112000000Y-144000000D03*
D43*
X112000000Y-137500000D03*
D10*
X150687500Y-97000000D03*
X152512500Y-97000000D03*
D17*
X127925000Y-145500000D03*
X126200000Y-145500000D03*
D50*
X138650000Y-104250000D03*
X138650000Y-104750000D03*
X138650000Y-105250000D03*
X138650000Y-105750000D03*
D51*
X139500000Y-106100000D03*
X140000000Y-106100000D03*
X140500000Y-106100000D03*
D50*
X141350000Y-105750000D03*
X141350000Y-105250000D03*
X141350000Y-104750000D03*
X141350000Y-104250000D03*
D51*
X140500000Y-103900000D03*
X140000000Y-103900000D03*
X139500000Y-103900000D03*
D52*
X145427000Y-50539000D03*
D12*
X144475499Y-48183953D03*
D10*
X150687500Y-93500000D03*
X152512500Y-93500000D03*
D26*
X119730000Y-68925000D03*
X119730000Y-67100000D03*
D21*
X130750000Y-83000000D03*
X130750000Y-84725000D03*
D53*
X114309000Y-73248000D03*
D54*
X111778665Y-73469376D03*
D55*
X165470000Y-75779000D03*
D12*
X168000335Y-76000376D03*
D56*
X171120000Y-142650000D03*
X171120000Y-145190000D03*
X171120000Y-147730000D03*
D14*
X147600000Y-89362500D03*
X147600000Y-87637500D03*
D10*
X121310000Y-67100000D03*
X123135000Y-67100000D03*
X123087500Y-76710000D03*
X124912500Y-76710000D03*
D38*
X113500000Y-132625000D03*
X113500000Y-134375000D03*
D10*
X156865000Y-68700000D03*
X158690000Y-68700000D03*
D28*
X139500000Y-107500000D03*
X141225000Y-107500000D03*
D57*
X151710000Y-132040000D03*
X151710000Y-135690000D03*
D21*
X129000000Y-83000000D03*
X129000000Y-84725000D03*
D14*
X144400000Y-105975000D03*
X144400000Y-104250000D03*
D15*
X126512500Y-60450000D03*
X124687500Y-60450000D03*
X124912500Y-58900000D03*
X123087500Y-58900000D03*
D58*
X143680000Y-119300000D03*
D40*
X146220000Y-119300000D03*
X143680000Y-121840000D03*
X146220000Y-121840000D03*
X143680000Y-124380000D03*
X146220000Y-124380000D03*
D15*
X113162500Y-147000000D03*
X111337500Y-147000000D03*
D17*
X132225000Y-93650000D03*
X130500000Y-93650000D03*
D10*
X153487500Y-60450000D03*
X155312500Y-60450000D03*
D44*
X119750000Y-65297500D03*
X121650000Y-65297500D03*
X120700000Y-63422500D03*
D59*
X144650000Y-145300000D03*
X144650000Y-143000000D03*
D60*
X138350000Y-143000000D03*
D59*
X144650000Y-140700000D03*
D10*
X155087500Y-58840000D03*
X156912500Y-58840000D03*
D15*
X136412500Y-109000000D03*
X134587500Y-109000000D03*
D61*
X126200000Y-143400000D03*
X128500000Y-143400000D03*
D62*
X128500000Y-137100000D03*
D61*
X130800000Y-143400000D03*
D17*
X129862500Y-147100000D03*
X128137500Y-147100000D03*
D13*
X172925000Y-139575000D03*
X168775000Y-139575000D03*
X172925000Y-137425000D03*
X168800000Y-137425000D03*
D10*
X134587500Y-107450000D03*
X136412500Y-107450000D03*
X168087500Y-133600000D03*
X169912500Y-133600000D03*
D42*
X116500000Y-144000000D03*
D43*
X116500000Y-137500000D03*
D15*
X130162500Y-55250000D03*
X128337500Y-55250000D03*
D63*
X147782000Y-49588000D03*
D64*
X146830499Y-47232953D03*
D15*
X128662500Y-104000000D03*
X126837500Y-104000000D03*
D38*
X110500000Y-132625000D03*
X110500000Y-134375000D03*
D21*
X127250000Y-83000000D03*
X127250000Y-84725000D03*
D15*
X117662500Y-147000000D03*
X115837500Y-147000000D03*
D38*
X116500000Y-132625000D03*
X116500000Y-134375000D03*
D44*
X153400000Y-57087500D03*
X155300000Y-57087500D03*
X154350000Y-55212500D03*
D15*
X152512500Y-100000000D03*
X150687500Y-100000000D03*
M02*
