M48
; DRILL file {KiCad 7.0.9-7.0.9~ubuntu22.04.1} date 2023年12月15日 18時48分55秒
; FORMAT={-:-/ absolute / metric / decimal}
; #@! TF.CreationDate,2023-12-15T18:48:55+09:00
; #@! TF.GenerationSoftware,Kicad,Pcbnew,7.0.9-7.0.9~ubuntu22.04.1
; #@! TF.FileFunction,MixedPlating,1,2
FMAT,2
METRIC
; #@! TA.AperFunction,Plated,PTH,ViaDrill
T1C0.300
; #@! TA.AperFunction,Plated,PTH,ViaDrill
T2C0.500
; #@! TA.AperFunction,Plated,PTH,ComponentDrill
T3C0.700
; #@! TA.AperFunction,Plated,PTH,ComponentDrill
T4C0.750
; #@! TA.AperFunction,Plated,PTH,ComponentDrill
T5C0.762
; #@! TA.AperFunction,Plated,PTH,ComponentDrill
T6C0.900
; #@! TA.AperFunction,Plated,PTH,ViaDrill
T7C1.000
; #@! TA.AperFunction,Plated,PTH,ComponentDrill
T8C1.000
; #@! TA.AperFunction,Plated,PTH,ComponentDrill
T9C1.300
; #@! TA.AperFunction,Plated,PTH,ViaDrill
T10C1.500
%
G90
G05
T1
X112.39Y-66.53
X113.15Y-148.75
X114.9Y-78.9
X115.13Y-66.46
X116.31Y-76.09
X116.57Y-72.67
X118.57Y-145.71
X118.58Y-143.61
X119.07Y-76.18
X120.53Y-143.77
X121.585Y-142.645
X122.13Y-142.24
X123.137Y-78.25
X123.49Y-75.44
X123.55Y-57.29
X124.6Y-91.8
X125.15Y-90.05
X125.89Y-73.36
X125.93Y-69.61
X125.95Y-75.68
X126.1Y-65.6
X126.1Y-67.6
X126.25Y-77.74
X126.5Y-58.9
X127.25Y-73.31
X127.25Y-80.77
X127.25Y-83.0
X127.271Y-90.749
X127.29Y-75.81
X127.29Y-78.95
X127.32Y-69.82
X127.4Y-89.47
X127.47Y-93.71
X127.6Y-67.35
X127.9Y-62.5
X128.093Y-93.17
X128.1Y-58.75
X128.1Y-64.2
X128.181Y-79.45
X128.2Y-60.3
X128.618Y-93.784
X128.65Y-91.274
X128.662Y-100.0
X128.662Y-102.0
X128.662Y-104.0
X128.662Y-106.0
X128.706Y-80.16
X128.73Y-89.36
X129.12Y-53.87
X129.23Y-80.87
X129.25Y-93.382
X129.493Y-89.382
X130.65Y-58.55
X131.02Y-94.88
X131.1Y-51.05
X131.15Y-53.9
X131.28Y-47.73
X131.28Y-56.05
X132.13Y-86.07
X132.15Y-66.15
X132.2Y-74.0
X132.25Y-95.25
X132.65Y-87.85
X132.9Y-104.05
X132.9Y-107.0
X133.4Y-52.15
X133.4Y-54.8
X134.156Y-100.265
X134.588Y-109.0
X134.67Y-99.1
X134.695Y-107.45
X134.89Y-101.1
X134.905Y-100.26
X135.22Y-87.3
X135.25Y-86.08
X135.65Y-54.5
X136.038Y-101.406
X136.2Y-81.6
X136.25Y-51.8
X136.438Y-112.45
X136.5Y-61.95
X136.55Y-58.85
X136.63Y-102.06
X136.65Y-78.25
X137.1Y-52.85
X137.266Y-95.186
X137.97Y-95.965
X138.0Y-107.0
X138.117Y-95.077
X138.274Y-102.06
X138.29Y-124.88
X138.39Y-87.79
X138.536Y-96.493
X138.81Y-101.536
X139.25Y-92.22
X139.31Y-93.225
X139.522Y-100.254
X140.01Y-100.823
X140.38Y-101.88
X140.722Y-99.624
X140.98Y-87.57
X141.225Y-107.5
X141.25Y-98.92
X141.34Y-101.38
X141.45Y-103.13
X141.77Y-91.71
X142.33Y-87.88
X142.6Y-52.65
X142.62Y-136.5
X142.75Y-78.45
X143.25Y-103.784
X143.8Y-51.35
X143.96Y-88.71
X144.05Y-59.4
X144.07Y-91.82
X144.1Y-90.52
X144.15Y-62.25
X144.2Y-54.25
X144.27Y-136.48
X144.74Y-101.66
X144.77Y-86.84
X144.9Y-80.45
X145.67Y-97.774
X146.65Y-52.2
X146.65Y-54.95
X146.74Y-116.77
X147.1Y-127.37
X147.71Y-90.75
X148.1Y-66.8
X148.1Y-73.15
X148.234Y-102.075
X148.83Y-56.1
X148.88Y-50.91
X148.88Y-54.1
X149.66Y-119.26
X149.67Y-121.12
X149.68Y-117.66
X149.78Y-132.79
X149.79Y-109.34
X149.8Y-58.35
X149.8Y-131.02
X149.8Y-131.85
X149.82Y-112.07
X149.82Y-115.33
X149.84Y-106.61
X150.49Y-101.61
X150.688Y-92.0
X150.688Y-97.0
X150.78Y-54.07
X150.85Y-50.73
X151.05Y-102.18
X151.3Y-59.8
X151.71Y-135.69
X152.12Y-134.05
X152.3Y-65.15
X152.3Y-68.7
X152.4Y-61.55
X152.5Y-97.05
X152.55Y-93.5
X152.62Y-133.48
X152.65Y-58.7
X152.659Y-130.12
X152.787Y-89.5
X152.95Y-90.6
X153.08Y-55.11
X153.73Y-71.17
X153.89Y-137.25
X154.14Y-134.63
X154.18Y-131.0
X154.28Y-70.56
X154.8Y-70.05
X155.09Y-131.93
X155.21Y-64.46
X155.25Y-67.74
X155.26Y-61.81
X155.4Y-127.17
X155.48Y-135.9
X156.02Y-132.83
X156.47Y-57.42
X156.7Y-60.18
X156.79Y-137.25
X157.03Y-134.67
X157.35Y-62.12
X157.37Y-65.74
X158.22Y-58.82
X158.24Y-135.91
X158.41Y-137.8
X159.3Y-122.65
X159.39Y-65.3
X160.15Y-142.05
X160.2Y-140.05
X160.26Y-67.13
X160.48Y-65.4
X160.75Y-132.75
X161.49Y-77.36
X161.59Y-69.48
X161.81Y-131.04
X162.15Y-134.675
X162.2Y-132.75
X163.09Y-78.93
X163.75Y-71.74
X164.11Y-73.9
X164.15Y-131.0
X166.6Y-138.1
X166.66Y-135.58
X167.0Y-131.0
X167.35Y-139.55
X168.83Y-78.92
X169.01Y-131.03
X169.71Y-146.45
X170.74Y-131.04
X170.9Y-136.95
X171.0Y-138.45
X172.38Y-146.54
X172.5Y-131.03
X173.36Y-131.03
X173.7Y-135.54
X173.85Y-138.51
T2
X107.0Y-141.5
X107.5Y-72.0
X107.5Y-78.0
X107.5Y-132.5
X107.7Y-148.55
X108.0Y-67.5
X109.75Y-143.45
X109.75Y-145.5
X110.0Y-65.0
X110.0Y-140.5
X110.5Y-132.5
X111.25Y-78.45
X113.45Y-63.85
X113.5Y-132.5
X114.25Y-143.5
X114.25Y-145.55
X114.5Y-140.5
X115.0Y-55.0
X115.0Y-60.0
X116.5Y-132.5
X118.1Y-63.85
X118.1Y-73.3
X118.5Y-133.5
X118.75Y-148.55
X119.9Y-71.8
X120.0Y-50.0
X120.0Y-55.0
X120.0Y-60.0
X120.0Y-137.5
X120.0Y-140.5
X120.5Y-133.5
X120.75Y-63.35
X120.8Y-79.1
X121.15Y-81.8
X121.2Y-70.3
X121.5Y-129.5
X122.0Y-92.5
X122.0Y-98.0
X122.0Y-104.5
X122.0Y-112.0
X122.0Y-117.5
X122.0Y-122.0
X122.95Y-58.8
X123.0Y-145.5
X123.3Y-66.95
X123.35Y-61.9
X123.35Y-64.25
X123.5Y-88.0
X123.6Y-73.35
X123.7Y-80.65
X124.0Y-130.5
X124.5Y-107.5
X124.5Y-143.5
X124.5Y-148.5
X124.912Y-76.71
X125.0Y-45.0
X125.0Y-50.0
X125.0Y-55.0
X125.0Y-95.0
X125.0Y-100.0
X126.5Y-143.5
X127.0Y-98.0
X127.0Y-110.5
X127.0Y-117.5
X127.0Y-123.0
X127.0Y-127.5
X128.0Y-148.5
X128.3Y-54.9
X128.8Y-51.3
X129.64Y-134.08
X130.3Y-42.15
X130.7Y-81.25
X132.45Y-45.35
X133.25Y-77.15
X133.35Y-63.2
X133.5Y-110.5
X133.5Y-113.5
X133.9Y-128.1
X134.0Y-117.0
X134.0Y-130.85
X134.15Y-82.55
X134.5Y-111.5
X135.0Y-45.0
X135.25Y-132.25
X136.0Y-103.5
X136.0Y-115.0
X136.5Y-105.5
X137.2Y-131.6
X137.45Y-83.4
X138.0Y-111.5
X138.0Y-122.0
X138.5Y-109.0
X138.5Y-113.0
X138.5Y-118.0
X138.7Y-132.0
X138.95Y-81.9
X139.9Y-49.4
X139.95Y-41.6
X140.0Y-55.65
X140.0Y-60.0
X140.05Y-132.0
X140.38Y-88.65
X140.5Y-111.0
X141.4Y-132.0
X141.7Y-84.15
X142.0Y-114.5
X142.6Y-143.2
X142.62Y-140.51
X142.63Y-137.64
X142.85Y-145.6
X142.9Y-132.35
X142.91Y-133.55
X143.25Y-96.07
X143.4Y-99.6
X143.65Y-101.3
X143.8Y-126.8
X144.15Y-83.9
X144.45Y-132.35
X144.5Y-112.5
X144.75Y-145.35
X145.0Y-45.0
X145.74Y-126.9
X146.0Y-105.97
X146.0Y-110.0
X146.0Y-114.5
X147.35Y-63.5
X147.6Y-89.362
X148.46Y-105.97
X150.85Y-41.9
X152.0Y-146.0
X152.0Y-148.5
X152.5Y-82.9
X154.0Y-146.8
X154.14Y-84.32
X154.75Y-81.24
X155.0Y-45.0
X155.0Y-50.0
X155.0Y-55.0
X155.45Y-143.6
X155.5Y-148.5
X155.75Y-122.5
X156.0Y-100.0
X156.0Y-107.0
X156.0Y-111.75
X156.0Y-117.25
X156.3Y-62.8
X156.3Y-66.8
X156.5Y-146.0
X157.0Y-128.5
X157.05Y-81.2
X157.5Y-90.0
X157.5Y-95.0
X158.0Y-104.395
X158.0Y-109.0
X158.0Y-114.5
X158.0Y-120.0
X158.0Y-143.5
X158.69Y-79.51
X158.75Y-100.0
X158.99Y-81.71
X159.0Y-61.5
X159.5Y-130.5
X159.75Y-138.35
X160.0Y-50.0
X160.0Y-55.0
X160.0Y-60.0
X160.65Y-78.62
X161.0Y-145.0
X161.0Y-148.5
X162.45Y-63.3
X163.0Y-67.5
X163.04Y-135.86
X165.0Y-55.0
X165.0Y-60.0
X166.75Y-66.2
X166.76Y-133.15
X168.0Y-142.5
X168.0Y-145.0
X168.0Y-148.5
X169.0Y-137.5
X169.5Y-141.0
X170.0Y-65.0
X170.4Y-77.66
X170.5Y-72.0
X171.5Y-68.0
X172.0Y-75.0
X172.0Y-135.5
X172.81Y-78.11
X173.0Y-137.5
X173.0Y-145.0
X173.0Y-148.5
X173.5Y-132.5
X173.5Y-141.0
T3
X111.779Y-73.469
X114.309Y-73.248
X132.218Y-49.588
X133.17Y-47.233
X146.83Y-47.233
X147.782Y-49.588
X165.691Y-73.248
X168.221Y-73.469
T4
X160.08Y-74.0
X160.08Y-76.0
T5
X153.35Y-141.33
X153.35Y-143.87
X171.12Y-142.65
X171.12Y-145.19
X171.12Y-147.73
T6
X112.0Y-76.0
X114.53Y-75.779
X134.573Y-50.539
X135.525Y-48.184
X144.475Y-48.184
X145.427Y-50.539
X165.47Y-75.779
X168.0Y-76.0
T7
X117.44Y-66.79
X117.53Y-69.81
X128.137Y-147.1
X130.5Y-93.65
X130.75Y-83.0
X130.75Y-86.5
X135.47Y-130.25
X140.73Y-135.16
X146.8Y-145.862
X148.46Y-125.79
X151.71Y-132.04
X153.099Y-72.533
T8
X133.78Y-119.3
X133.78Y-121.84
X133.78Y-124.38
X136.32Y-119.3
X136.32Y-121.84
X136.32Y-124.38
X143.68Y-119.3
X143.68Y-121.84
X143.68Y-124.38
X146.22Y-119.3
X146.22Y-121.84
X146.22Y-124.38
X163.16Y-140.11
X163.16Y-142.65
X163.16Y-145.19
X163.16Y-147.73
X165.7Y-140.11
X165.7Y-142.65
X165.7Y-145.19
X165.7Y-147.73
T9
X107.5Y-137.5
X107.5Y-144.0
X112.0Y-137.5
X112.0Y-144.0
X116.5Y-137.5
X116.5Y-144.0
T10
X126.49Y-71.49
T0
M30
