G04 #@! TF.GenerationSoftware,KiCad,Pcbnew,7.0.9-7.0.9~ubuntu22.04.1*
G04 #@! TF.CreationDate,2023-12-15T18:46:41+09:00*
G04 #@! TF.ProjectId,fast_respect,66617374-5f72-4657-9370-6563742e6b69,rev?*
G04 #@! TF.SameCoordinates,Original*
G04 #@! TF.FileFunction,Legend,Bot*
G04 #@! TF.FilePolarity,Positive*
%FSLAX46Y46*%
G04 Gerber Fmt 4.6, Leading zero omitted, Abs format (unit mm)*
G04 Created by KiCad (PCBNEW 7.0.9-7.0.9~ubuntu22.04.1) date 2023-12-15 18:46:41*
%MOMM*%
%LPD*%
G01*
G04 APERTURE LIST*
%ADD10C,0.600000*%
%ADD11C,0.010000*%
G04 APERTURE END LIST*
D10*
X154402537Y-95987237D02*
X155398732Y-96074393D01*
X155261773Y-97639842D02*
X155523240Y-94651257D01*
X155523240Y-94651257D02*
X154100105Y-94526749D01*
X151419307Y-97303669D02*
X151556266Y-95738221D01*
X151556266Y-95738221D02*
X151723481Y-95466044D01*
X151723481Y-95466044D02*
X152020559Y-95348632D01*
X152020559Y-95348632D02*
X152589813Y-95398436D01*
X152589813Y-95398436D02*
X152861989Y-95565651D01*
X151431758Y-97161356D02*
X151703934Y-97328571D01*
X151703934Y-97328571D02*
X152415502Y-97390825D01*
X152415502Y-97390825D02*
X152712580Y-97273413D01*
X152712580Y-97273413D02*
X152879795Y-97001237D01*
X152879795Y-97001237D02*
X152904696Y-96716610D01*
X152904696Y-96716610D02*
X152787284Y-96419532D01*
X152787284Y-96419532D02*
X152515108Y-96252317D01*
X152515108Y-96252317D02*
X151803541Y-96190063D01*
X151803541Y-96190063D02*
X151531364Y-96022848D01*
X150150936Y-97049298D02*
X149853858Y-97166710D01*
X149853858Y-97166710D02*
X149284604Y-97116907D01*
X149284604Y-97116907D02*
X149012428Y-96949692D01*
X149012428Y-96949692D02*
X148895016Y-96652614D01*
X148895016Y-96652614D02*
X148907466Y-96510300D01*
X148907466Y-96510300D02*
X149074682Y-96238124D01*
X149074682Y-96238124D02*
X149371760Y-96120712D01*
X149371760Y-96120712D02*
X149798700Y-96158065D01*
X149798700Y-96158065D02*
X150095778Y-96040653D01*
X150095778Y-96040653D02*
X150262993Y-95768477D01*
X150262993Y-95768477D02*
X150275444Y-95626163D01*
X150275444Y-95626163D02*
X150158032Y-95329085D01*
X150158032Y-95329085D02*
X149885856Y-95161870D01*
X149885856Y-95161870D02*
X149458915Y-95124518D01*
X149458915Y-95124518D02*
X149161837Y-95241930D01*
X148178094Y-95012460D02*
X147039586Y-94912854D01*
X147838309Y-93978913D02*
X147614194Y-96540557D01*
X147614194Y-96540557D02*
X147446979Y-96812733D01*
X147446979Y-96812733D02*
X147149901Y-96930145D01*
X147149901Y-96930145D02*
X146865274Y-96905243D01*
X145968686Y-95679579D02*
X143691669Y-95480366D01*
X140461165Y-96344956D02*
X141581868Y-95008977D01*
X142168927Y-96494366D02*
X142430394Y-93505782D01*
X142430394Y-93505782D02*
X141291886Y-93406175D01*
X141291886Y-93406175D02*
X140994808Y-93523587D01*
X140994808Y-93523587D02*
X140840044Y-93653450D01*
X140840044Y-93653450D02*
X140672829Y-93925626D01*
X140672829Y-93925626D02*
X140635476Y-94352567D01*
X140635476Y-94352567D02*
X140752888Y-94649645D01*
X140752888Y-94649645D02*
X140882751Y-94804409D01*
X140882751Y-94804409D02*
X141154927Y-94971624D01*
X141154927Y-94971624D02*
X142293435Y-95071231D01*
X138054286Y-95990979D02*
X138326462Y-96158194D01*
X138326462Y-96158194D02*
X138895716Y-96207997D01*
X138895716Y-96207997D02*
X139192794Y-96090585D01*
X139192794Y-96090585D02*
X139360009Y-95818409D01*
X139360009Y-95818409D02*
X139459616Y-94679901D01*
X139459616Y-94679901D02*
X139342204Y-94382823D01*
X139342204Y-94382823D02*
X139070028Y-94215608D01*
X139070028Y-94215608D02*
X138500773Y-94165804D01*
X138500773Y-94165804D02*
X138203696Y-94283216D01*
X138203696Y-94283216D02*
X138036480Y-94555393D01*
X138036480Y-94555393D02*
X138011579Y-94840020D01*
X138011579Y-94840020D02*
X139409812Y-95249155D01*
X136773464Y-95878921D02*
X136476386Y-95996333D01*
X136476386Y-95996333D02*
X135907132Y-95946530D01*
X135907132Y-95946530D02*
X135634955Y-95779315D01*
X135634955Y-95779315D02*
X135517543Y-95482237D01*
X135517543Y-95482237D02*
X135529994Y-95339923D01*
X135529994Y-95339923D02*
X135697209Y-95067747D01*
X135697209Y-95067747D02*
X135994287Y-94950335D01*
X135994287Y-94950335D02*
X136421228Y-94987688D01*
X136421228Y-94987688D02*
X136718306Y-94870276D01*
X136718306Y-94870276D02*
X136885521Y-94598100D01*
X136885521Y-94598100D02*
X136897972Y-94455786D01*
X136897972Y-94455786D02*
X136780560Y-94158708D01*
X136780560Y-94158708D02*
X136508384Y-93991493D01*
X136508384Y-93991493D02*
X136081443Y-93954140D01*
X136081443Y-93954140D02*
X135784365Y-94071552D01*
X134373681Y-93804731D02*
X134112214Y-96793315D01*
X134361230Y-93947044D02*
X134089054Y-93779829D01*
X134089054Y-93779829D02*
X133519800Y-93730026D01*
X133519800Y-93730026D02*
X133222722Y-93847438D01*
X133222722Y-93847438D02*
X133067958Y-93977300D01*
X133067958Y-93977300D02*
X132900743Y-94249477D01*
X132900743Y-94249477D02*
X132826038Y-95103358D01*
X132826038Y-95103358D02*
X132943450Y-95400436D01*
X132943450Y-95400436D02*
X133073312Y-95555200D01*
X133073312Y-95555200D02*
X133345488Y-95722415D01*
X133345488Y-95722415D02*
X133914743Y-95772218D01*
X133914743Y-95772218D02*
X134211820Y-95654807D01*
X130369355Y-95318634D02*
X130641531Y-95485850D01*
X130641531Y-95485850D02*
X131210785Y-95535653D01*
X131210785Y-95535653D02*
X131507863Y-95418241D01*
X131507863Y-95418241D02*
X131675078Y-95146065D01*
X131675078Y-95146065D02*
X131774685Y-94007556D01*
X131774685Y-94007556D02*
X131657273Y-93710479D01*
X131657273Y-93710479D02*
X131385097Y-93543263D01*
X131385097Y-93543263D02*
X130815843Y-93493460D01*
X130815843Y-93493460D02*
X130518765Y-93610872D01*
X130518765Y-93610872D02*
X130351550Y-93883048D01*
X130351550Y-93883048D02*
X130326648Y-94167675D01*
X130326648Y-94167675D02*
X131724882Y-94576811D01*
X127665397Y-95082069D02*
X127937574Y-95249284D01*
X127937574Y-95249284D02*
X128506828Y-95299087D01*
X128506828Y-95299087D02*
X128803906Y-95181675D01*
X128803906Y-95181675D02*
X128958670Y-95051813D01*
X128958670Y-95051813D02*
X129125885Y-94779636D01*
X129125885Y-94779636D02*
X129200590Y-93925755D01*
X129200590Y-93925755D02*
X129083178Y-93628677D01*
X129083178Y-93628677D02*
X128953316Y-93473913D01*
X128953316Y-93473913D02*
X128681139Y-93306698D01*
X128681139Y-93306698D02*
X128111885Y-93256895D01*
X128111885Y-93256895D02*
X127814807Y-93374306D01*
X126973376Y-93157288D02*
X125834868Y-93057681D01*
X126633592Y-92123741D02*
X126409477Y-94685384D01*
X126409477Y-94685384D02*
X126242262Y-94957560D01*
X126242262Y-94957560D02*
X125945184Y-95074972D01*
X125945184Y-95074972D02*
X125660557Y-95050071D01*
X131818015Y-98429588D02*
X130932135Y-100359724D01*
X130932135Y-100359724D02*
X130394879Y-98305080D01*
X127516611Y-100060904D02*
X129224373Y-100210314D01*
X128370492Y-100135609D02*
X128631959Y-97147025D01*
X128631959Y-97147025D02*
X128879234Y-97598867D01*
X128879234Y-97598867D02*
X129138960Y-97908396D01*
X129138960Y-97908396D02*
X129411136Y-98075611D01*
X126260691Y-99664219D02*
X126105926Y-99794082D01*
X126105926Y-99794082D02*
X126235789Y-99948846D01*
X126235789Y-99948846D02*
X126390554Y-99818984D01*
X126390554Y-99818984D02*
X126260691Y-99664219D01*
X126260691Y-99664219D02*
X126235789Y-99948846D01*
X124504867Y-96785951D02*
X124220240Y-96761049D01*
X124220240Y-96761049D02*
X123923163Y-96878461D01*
X123923163Y-96878461D02*
X123768398Y-97008324D01*
X123768398Y-97008324D02*
X123601183Y-97280500D01*
X123601183Y-97280500D02*
X123409066Y-97837303D01*
X123409066Y-97837303D02*
X123346812Y-98548871D01*
X123346812Y-98548871D02*
X123439322Y-99130576D01*
X123439322Y-99130576D02*
X123556734Y-99427654D01*
X123556734Y-99427654D02*
X123686597Y-99582418D01*
X123686597Y-99582418D02*
X123958773Y-99749633D01*
X123958773Y-99749633D02*
X124243400Y-99774535D01*
X124243400Y-99774535D02*
X124540478Y-99657123D01*
X124540478Y-99657123D02*
X124695242Y-99527260D01*
X124695242Y-99527260D02*
X124862458Y-99255084D01*
X124862458Y-99255084D02*
X125054574Y-98698281D01*
X125054574Y-98698281D02*
X125116829Y-97986713D01*
X125116829Y-97986713D02*
X125024318Y-97405008D01*
X125024318Y-97405008D02*
X124906906Y-97107930D01*
X124906906Y-97107930D02*
X124777044Y-96953166D01*
X124777044Y-96953166D02*
X124504867Y-96785951D01*
D11*
X150178467Y-104383466D02*
X150193865Y-104396553D01*
X150307732Y-104503937D01*
X150423071Y-104628827D01*
X150530730Y-104760153D01*
X150621558Y-104886846D01*
X150686401Y-104997836D01*
X150744823Y-105116889D01*
X150695852Y-105156543D01*
X150661266Y-105177299D01*
X150572651Y-105208053D01*
X150448105Y-105234705D01*
X150292660Y-105256601D01*
X150111348Y-105273087D01*
X149909199Y-105283508D01*
X149691246Y-105287210D01*
X149634424Y-105287106D01*
X149513100Y-105284806D01*
X149412793Y-105277499D01*
X149323495Y-105262572D01*
X149235196Y-105237413D01*
X149137890Y-105199407D01*
X149021569Y-105145942D01*
X148876224Y-105074404D01*
X148824909Y-105049188D01*
X148747188Y-105012644D01*
X148689256Y-104987518D01*
X148660877Y-104978173D01*
X148657558Y-104979481D01*
X148646888Y-105009459D01*
X148640637Y-105072484D01*
X148638664Y-105159815D01*
X148640824Y-105262716D01*
X148646976Y-105372447D01*
X148656976Y-105480270D01*
X148670681Y-105577447D01*
X148687973Y-105668528D01*
X148718370Y-105801804D01*
X148757751Y-105947556D01*
X148808185Y-106112830D01*
X148871742Y-106304672D01*
X148950492Y-106530130D01*
X148986000Y-106629393D01*
X149038502Y-106772126D01*
X149083583Y-106886190D01*
X149125412Y-106979954D01*
X149168156Y-107061787D01*
X149215985Y-107140058D01*
X149273065Y-107223136D01*
X149343565Y-107319391D01*
X149396812Y-107394178D01*
X149460983Y-107492762D01*
X149513343Y-107582559D01*
X149546024Y-107650695D01*
X149569065Y-107721969D01*
X149599783Y-107897440D01*
X149603504Y-108091624D01*
X149579621Y-108292938D01*
X149562024Y-108385890D01*
X149550718Y-108452309D01*
X149548468Y-108490268D01*
X149556194Y-108507636D01*
X149574818Y-108512286D01*
X149605260Y-108512087D01*
X149637526Y-108514694D01*
X149717288Y-108548501D01*
X149778307Y-108617614D01*
X149817315Y-108717247D01*
X149831044Y-108842618D01*
X149830865Y-108862324D01*
X149823839Y-108928939D01*
X149800314Y-108981520D01*
X149751764Y-109041452D01*
X149727044Y-109067277D01*
X149596125Y-109165616D01*
X149438235Y-109229592D01*
X149254742Y-109258608D01*
X149203237Y-109261077D01*
X149121678Y-109260642D01*
X149066306Y-109251476D01*
X149025287Y-109232217D01*
X148996012Y-109214733D01*
X148960373Y-109208113D01*
X148919595Y-109228563D01*
X148903235Y-109238596D01*
X148803106Y-109284193D01*
X148662318Y-109329426D01*
X148483740Y-109373341D01*
X148282401Y-109406059D01*
X148053431Y-109412262D01*
X147845339Y-109381471D01*
X147823009Y-109375950D01*
X147760963Y-109362686D01*
X147705992Y-109356839D01*
X147645459Y-109358520D01*
X147566729Y-109367843D01*
X147457167Y-109384920D01*
X147378064Y-109397037D01*
X147254589Y-109410617D01*
X147161431Y-109410540D01*
X147090555Y-109395649D01*
X147033928Y-109364790D01*
X146983514Y-109316808D01*
X146963943Y-109293160D01*
X146929288Y-109242305D01*
X146915566Y-109207497D01*
X146917697Y-109199368D01*
X146941505Y-109159730D01*
X146986121Y-109101204D01*
X147044530Y-109033269D01*
X147094000Y-108975974D01*
X147160686Y-108882215D01*
X147206552Y-108786065D01*
X147234861Y-108677249D01*
X147248877Y-108545494D01*
X147251863Y-108380527D01*
X147248946Y-108272607D01*
X147230435Y-108065311D01*
X147192838Y-107842724D01*
X147168202Y-107714127D01*
X147152830Y-107612273D01*
X147145609Y-107522262D01*
X147145294Y-107428543D01*
X147150640Y-107315567D01*
X147165478Y-107071250D01*
X147112305Y-107087684D01*
X147056422Y-107109302D01*
X146992870Y-107139886D01*
X146951736Y-107156206D01*
X146867443Y-107170435D01*
X146747657Y-107174159D01*
X146682415Y-107172207D01*
X146566178Y-107157049D01*
X146482831Y-107124294D01*
X146425926Y-107070684D01*
X146389014Y-106992962D01*
X146387195Y-106987235D01*
X146371774Y-106924873D01*
X146375547Y-106877041D01*
X146400058Y-106819481D01*
X146416218Y-106790402D01*
X146443361Y-106755659D01*
X146482522Y-106723053D01*
X146540886Y-106687794D01*
X146625640Y-106645089D01*
X146743968Y-106590148D01*
X146777306Y-106574270D01*
X146853119Y-106529892D01*
X146915525Y-106476288D01*
X146969146Y-106406685D01*
X147018608Y-106314311D01*
X147068534Y-106192390D01*
X147123550Y-106034151D01*
X147164087Y-105913617D01*
X147235381Y-105711916D01*
X147301108Y-105539486D01*
X147359512Y-105400842D01*
X147408837Y-105300505D01*
X147427606Y-105264290D01*
X147440803Y-105222560D01*
X147428959Y-105204752D01*
X147427253Y-105204093D01*
X147393756Y-105184669D01*
X147337386Y-105146877D01*
X147269360Y-105098205D01*
X147240159Y-105075954D01*
X147102195Y-104944693D01*
X147000310Y-104798735D01*
X146937201Y-104642781D01*
X146915566Y-104481532D01*
X146931092Y-104390652D01*
X146940402Y-104371780D01*
X147542215Y-104371780D01*
X147568183Y-104470469D01*
X147633312Y-104558446D01*
X147689803Y-104594544D01*
X147795841Y-104619483D01*
X147829825Y-104622293D01*
X147887218Y-104620117D01*
X147932372Y-104600019D01*
X147986478Y-104554813D01*
X148028268Y-104512359D01*
X148063344Y-104454281D01*
X148078518Y-104381067D01*
X148074056Y-104290531D01*
X148037312Y-104201403D01*
X147974391Y-104134050D01*
X147893494Y-104092439D01*
X147802826Y-104080537D01*
X147710586Y-104102309D01*
X147624978Y-104161724D01*
X147608545Y-104179485D01*
X147555604Y-104271684D01*
X147542215Y-104371780D01*
X146940402Y-104371780D01*
X146979866Y-104291781D01*
X147064239Y-104182163D01*
X147186561Y-104058125D01*
X147197108Y-104048393D01*
X147373056Y-103913252D01*
X147560548Y-103817342D01*
X147754870Y-103763108D01*
X147810552Y-103754713D01*
X147882752Y-103750247D01*
X147947267Y-103759291D01*
X148026117Y-103783503D01*
X148086031Y-103801813D01*
X148149047Y-103815114D01*
X148186008Y-103815382D01*
X148194351Y-103809804D01*
X148220149Y-103770979D01*
X148241786Y-103711424D01*
X148248804Y-103684436D01*
X148278284Y-103581405D01*
X148308355Y-103501003D01*
X148346248Y-103426159D01*
X148399196Y-103339799D01*
X148448477Y-103265857D01*
X148599219Y-103072597D01*
X148763901Y-102911750D01*
X148949774Y-102777810D01*
X149164085Y-102665267D01*
X149414084Y-102568614D01*
X149463005Y-102552991D01*
X149621757Y-102513516D01*
X149757839Y-102497533D01*
X149827951Y-102496835D01*
X149881697Y-102502331D01*
X149916311Y-102518125D01*
X149945299Y-102547842D01*
X149967814Y-102581410D01*
X149980003Y-102630448D01*
X149974366Y-102701492D01*
X149965031Y-102752394D01*
X149917407Y-102915509D01*
X149844783Y-103089263D01*
X149753859Y-103260550D01*
X149651336Y-103416268D01*
X149543913Y-103543312D01*
X149533809Y-103553347D01*
X149475601Y-103605633D01*
X149407685Y-103656249D01*
X149322396Y-103710100D01*
X149212070Y-103772088D01*
X149069044Y-103847117D01*
X149045613Y-103859157D01*
X148927182Y-103920274D01*
X148844068Y-103964197D01*
X148792810Y-103993385D01*
X148769947Y-104010297D01*
X148772020Y-104017393D01*
X148795568Y-104017134D01*
X148837131Y-104011979D01*
X148865296Y-104008482D01*
X148999656Y-103999015D01*
X149149110Y-103997578D01*
X149298946Y-104003662D01*
X149434446Y-104016756D01*
X149540895Y-104036352D01*
X149667432Y-104078137D01*
X149842025Y-104158938D01*
X150016929Y-104263197D01*
X150175245Y-104381067D01*
X150178467Y-104383466D01*
G36*
X150178467Y-104383466D02*
G01*
X150193865Y-104396553D01*
X150307732Y-104503937D01*
X150423071Y-104628827D01*
X150530730Y-104760153D01*
X150621558Y-104886846D01*
X150686401Y-104997836D01*
X150744823Y-105116889D01*
X150695852Y-105156543D01*
X150661266Y-105177299D01*
X150572651Y-105208053D01*
X150448105Y-105234705D01*
X150292660Y-105256601D01*
X150111348Y-105273087D01*
X149909199Y-105283508D01*
X149691246Y-105287210D01*
X149634424Y-105287106D01*
X149513100Y-105284806D01*
X149412793Y-105277499D01*
X149323495Y-105262572D01*
X149235196Y-105237413D01*
X149137890Y-105199407D01*
X149021569Y-105145942D01*
X148876224Y-105074404D01*
X148824909Y-105049188D01*
X148747188Y-105012644D01*
X148689256Y-104987518D01*
X148660877Y-104978173D01*
X148657558Y-104979481D01*
X148646888Y-105009459D01*
X148640637Y-105072484D01*
X148638664Y-105159815D01*
X148640824Y-105262716D01*
X148646976Y-105372447D01*
X148656976Y-105480270D01*
X148670681Y-105577447D01*
X148687973Y-105668528D01*
X148718370Y-105801804D01*
X148757751Y-105947556D01*
X148808185Y-106112830D01*
X148871742Y-106304672D01*
X148950492Y-106530130D01*
X148986000Y-106629393D01*
X149038502Y-106772126D01*
X149083583Y-106886190D01*
X149125412Y-106979954D01*
X149168156Y-107061787D01*
X149215985Y-107140058D01*
X149273065Y-107223136D01*
X149343565Y-107319391D01*
X149396812Y-107394178D01*
X149460983Y-107492762D01*
X149513343Y-107582559D01*
X149546024Y-107650695D01*
X149569065Y-107721969D01*
X149599783Y-107897440D01*
X149603504Y-108091624D01*
X149579621Y-108292938D01*
X149562024Y-108385890D01*
X149550718Y-108452309D01*
X149548468Y-108490268D01*
X149556194Y-108507636D01*
X149574818Y-108512286D01*
X149605260Y-108512087D01*
X149637526Y-108514694D01*
X149717288Y-108548501D01*
X149778307Y-108617614D01*
X149817315Y-108717247D01*
X149831044Y-108842618D01*
X149830865Y-108862324D01*
X149823839Y-108928939D01*
X149800314Y-108981520D01*
X149751764Y-109041452D01*
X149727044Y-109067277D01*
X149596125Y-109165616D01*
X149438235Y-109229592D01*
X149254742Y-109258608D01*
X149203237Y-109261077D01*
X149121678Y-109260642D01*
X149066306Y-109251476D01*
X149025287Y-109232217D01*
X148996012Y-109214733D01*
X148960373Y-109208113D01*
X148919595Y-109228563D01*
X148903235Y-109238596D01*
X148803106Y-109284193D01*
X148662318Y-109329426D01*
X148483740Y-109373341D01*
X148282401Y-109406059D01*
X148053431Y-109412262D01*
X147845339Y-109381471D01*
X147823009Y-109375950D01*
X147760963Y-109362686D01*
X147705992Y-109356839D01*
X147645459Y-109358520D01*
X147566729Y-109367843D01*
X147457167Y-109384920D01*
X147378064Y-109397037D01*
X147254589Y-109410617D01*
X147161431Y-109410540D01*
X147090555Y-109395649D01*
X147033928Y-109364790D01*
X146983514Y-109316808D01*
X146963943Y-109293160D01*
X146929288Y-109242305D01*
X146915566Y-109207497D01*
X146917697Y-109199368D01*
X146941505Y-109159730D01*
X146986121Y-109101204D01*
X147044530Y-109033269D01*
X147094000Y-108975974D01*
X147160686Y-108882215D01*
X147206552Y-108786065D01*
X147234861Y-108677249D01*
X147248877Y-108545494D01*
X147251863Y-108380527D01*
X147248946Y-108272607D01*
X147230435Y-108065311D01*
X147192838Y-107842724D01*
X147168202Y-107714127D01*
X147152830Y-107612273D01*
X147145609Y-107522262D01*
X147145294Y-107428543D01*
X147150640Y-107315567D01*
X147165478Y-107071250D01*
X147112305Y-107087684D01*
X147056422Y-107109302D01*
X146992870Y-107139886D01*
X146951736Y-107156206D01*
X146867443Y-107170435D01*
X146747657Y-107174159D01*
X146682415Y-107172207D01*
X146566178Y-107157049D01*
X146482831Y-107124294D01*
X146425926Y-107070684D01*
X146389014Y-106992962D01*
X146387195Y-106987235D01*
X146371774Y-106924873D01*
X146375547Y-106877041D01*
X146400058Y-106819481D01*
X146416218Y-106790402D01*
X146443361Y-106755659D01*
X146482522Y-106723053D01*
X146540886Y-106687794D01*
X146625640Y-106645089D01*
X146743968Y-106590148D01*
X146777306Y-106574270D01*
X146853119Y-106529892D01*
X146915525Y-106476288D01*
X146969146Y-106406685D01*
X147018608Y-106314311D01*
X147068534Y-106192390D01*
X147123550Y-106034151D01*
X147164087Y-105913617D01*
X147235381Y-105711916D01*
X147301108Y-105539486D01*
X147359512Y-105400842D01*
X147408837Y-105300505D01*
X147427606Y-105264290D01*
X147440803Y-105222560D01*
X147428959Y-105204752D01*
X147427253Y-105204093D01*
X147393756Y-105184669D01*
X147337386Y-105146877D01*
X147269360Y-105098205D01*
X147240159Y-105075954D01*
X147102195Y-104944693D01*
X147000310Y-104798735D01*
X146937201Y-104642781D01*
X146915566Y-104481532D01*
X146931092Y-104390652D01*
X146940402Y-104371780D01*
X147542215Y-104371780D01*
X147568183Y-104470469D01*
X147633312Y-104558446D01*
X147689803Y-104594544D01*
X147795841Y-104619483D01*
X147829825Y-104622293D01*
X147887218Y-104620117D01*
X147932372Y-104600019D01*
X147986478Y-104554813D01*
X148028268Y-104512359D01*
X148063344Y-104454281D01*
X148078518Y-104381067D01*
X148074056Y-104290531D01*
X148037312Y-104201403D01*
X147974391Y-104134050D01*
X147893494Y-104092439D01*
X147802826Y-104080537D01*
X147710586Y-104102309D01*
X147624978Y-104161724D01*
X147608545Y-104179485D01*
X147555604Y-104271684D01*
X147542215Y-104371780D01*
X146940402Y-104371780D01*
X146979866Y-104291781D01*
X147064239Y-104182163D01*
X147186561Y-104058125D01*
X147197108Y-104048393D01*
X147373056Y-103913252D01*
X147560548Y-103817342D01*
X147754870Y-103763108D01*
X147810552Y-103754713D01*
X147882752Y-103750247D01*
X147947267Y-103759291D01*
X148026117Y-103783503D01*
X148086031Y-103801813D01*
X148149047Y-103815114D01*
X148186008Y-103815382D01*
X148194351Y-103809804D01*
X148220149Y-103770979D01*
X148241786Y-103711424D01*
X148248804Y-103684436D01*
X148278284Y-103581405D01*
X148308355Y-103501003D01*
X148346248Y-103426159D01*
X148399196Y-103339799D01*
X148448477Y-103265857D01*
X148599219Y-103072597D01*
X148763901Y-102911750D01*
X148949774Y-102777810D01*
X149164085Y-102665267D01*
X149414084Y-102568614D01*
X149463005Y-102552991D01*
X149621757Y-102513516D01*
X149757839Y-102497533D01*
X149827951Y-102496835D01*
X149881697Y-102502331D01*
X149916311Y-102518125D01*
X149945299Y-102547842D01*
X149967814Y-102581410D01*
X149980003Y-102630448D01*
X149974366Y-102701492D01*
X149965031Y-102752394D01*
X149917407Y-102915509D01*
X149844783Y-103089263D01*
X149753859Y-103260550D01*
X149651336Y-103416268D01*
X149543913Y-103543312D01*
X149533809Y-103553347D01*
X149475601Y-103605633D01*
X149407685Y-103656249D01*
X149322396Y-103710100D01*
X149212070Y-103772088D01*
X149069044Y-103847117D01*
X149045613Y-103859157D01*
X148927182Y-103920274D01*
X148844068Y-103964197D01*
X148792810Y-103993385D01*
X148769947Y-104010297D01*
X148772020Y-104017393D01*
X148795568Y-104017134D01*
X148837131Y-104011979D01*
X148865296Y-104008482D01*
X148999656Y-103999015D01*
X149149110Y-103997578D01*
X149298946Y-104003662D01*
X149434446Y-104016756D01*
X149540895Y-104036352D01*
X149667432Y-104078137D01*
X149842025Y-104158938D01*
X150016929Y-104263197D01*
X150175245Y-104381067D01*
X150178467Y-104383466D01*
G37*
M02*
